<?xml version="1.0" encoding="UTF-8"?>
<svg width="97px" height="22px" viewBox="0 0 97 22" version="1.1" xmlns="http://www.w3.org/2000/svg" xmlns:xlink="http://www.w3.org/1999/xlink">
    <!-- Generator: Sketch 51.2 (57519) - http://www.bohemiancoding.com/sketch -->
    <title>Logos/Ella-Blue</title>
    <desc>Created with Sketch.</desc>
    <defs></defs>
    <g id="Logos/Ella-Blue" stroke="none" stroke-width="1" fill="none" fill-rule="evenodd">
        <g id="Logo" fill="#173F61">
            <path d="M16.2250597,17.5366906 L15.1648083,21.6834532 L0,21.6834532 L0,21.2402878 C0.535483195,21.1136684 0.883542052,20.8973636 1.04418701,20.5913669 C1.20483197,20.2853702 1.28515324,19.8158305 1.28515324,19.1827338 L1.28515324,3.0705036 C1.28515324,2.64843914 1.26373424,2.32134409 1.22089558,2.08920863 C1.17805693,1.85707318 1.06025239,1.64076839 0.867478439,1.44028777 C0.674704489,1.23980715 0.385547901,1.09736253 0,1.01294964 L0,0.569784173 L14.84352,0.569784173 L15.1648083,4.68489209 L14.5864893,4.68489209 C14.1152641,3.41869871 13.4994677,2.52182518 12.7390815,1.9942446 C11.9786954,1.46666403 10.9130998,1.2028777 9.54226283,1.2028777 L6.42576622,1.2028777 C5.7189284,1.2028777 5.18880799,1.31366796 4.83538908,1.5352518 C4.48197017,1.75683564 4.30526337,2.1841695 4.30526337,2.81726619 L4.30526337,9.4647482 L8.70691322,9.4647482 C10.6774914,9.4647482 11.8126987,8.8105581 12.1125693,7.50215827 L12.5945018,7.50215827 L12.5945018,12.3453237 L12.1125693,12.3453237 C11.9412147,10.9103046 10.7952978,10.1928058 8.67478439,10.1928058 L4.30526337,10.1928058 L4.30526337,19.0244604 C4.30526337,19.8474861 4.48732492,20.3961617 4.85145349,20.6705036 C5.21558207,20.9448455 5.82602375,21.0820144 6.68279687,21.0820144 L9.38161868,21.0820144 C11.4807128,21.0820144 13.1085573,20.5438903 14.265201,19.4676259 C14.8006842,18.9611485 15.2826118,18.2436497 15.7109984,17.3151079 L16.2250597,17.5366906 Z M22.9506948,21.6834532 L18.5169161,21.6834532 L18.5169161,21.2719424 C18.7953674,21.1453231 19.0042027,20.9817756 19.1434283,20.781295 C19.282654,20.5808143 19.3576205,20.4014396 19.3683302,20.2431655 C19.3790398,20.0848913 19.3843946,19.8158292 19.3843946,19.4359712 L19.3843946,3.79856115 C19.3843946,3.46090958 19.3736851,3.22350188 19.3522657,3.08633094 C19.3308464,2.94915999 19.2558799,2.80671537 19.1273639,2.65899281 C18.998848,2.51127024 18.7953674,2.40575571 18.5169161,2.34244604 L18.5169161,1.83597122 C19.2451733,1.51942288 19.7913579,1.25563655 20.1554865,1.04460432 C20.5196151,0.833572086 20.9801237,0.485374129 21.5370263,0 L22.0832164,0 L22.0832164,19.4359712 C22.0832164,19.8158292 22.0885711,20.0848913 22.0992808,20.2431655 C22.1099905,20.4014396 22.184957,20.5808143 22.3241826,20.781295 C22.4634082,20.9817756 22.6722436,21.1453231 22.9506948,21.2719424 L22.9506948,21.6834532 Z M30.2225201,21.6834532 L25.7887414,21.6834532 L25.7887414,21.2719424 C26.0671926,21.1453231 26.276028,20.9817756 26.4152536,20.781295 C26.5544792,20.5808143 26.6294457,20.4014396 26.6401554,20.2431655 C26.6508651,20.0848913 26.6562198,19.8158292 26.6562198,19.4359712 L26.6562198,3.79856115 C26.6562198,3.46090958 26.6455103,3.22350188 26.624091,3.08633094 C26.6026717,2.94915999 26.5277051,2.80671537 26.3991892,2.65899281 C26.2706732,2.51127024 26.0671926,2.40575571 25.7887414,2.34244604 L25.7887414,1.83597122 C26.5169985,1.51942288 27.0631832,1.25563655 27.4273118,1.04460432 C27.7914403,0.833572086 28.251949,0.485374129 28.8088515,0 L29.3550416,0 L29.3550416,19.4359712 C29.3550416,19.8158292 29.3603964,20.0848913 29.371106,20.2431655 C29.3818157,20.4014396 29.4567822,20.5808143 29.5960079,20.781295 C29.7352335,20.9817756 29.9440688,21.1453231 30.2225201,21.2719424 L30.2225201,21.6834532 Z M44.9161053,20.7654676 C44.1450095,21.5884933 43.3846348,22 42.6349583,22 C41.4354759,22 40.7821962,21.324707 40.6750996,19.9741007 C40.5894223,20.0374104 40.3538132,20.1956822 39.9682653,20.4489209 C39.5827174,20.7021595 39.3256893,20.8657071 39.1971734,20.9395683 C39.0686574,21.0134296 38.8330483,21.1453228 38.4903391,21.3352518 C38.1476298,21.5251808 37.8745375,21.6517982 37.6710539,21.7151079 C37.4675703,21.7784176 37.2105422,21.8417263 36.8999619,21.905036 C36.5893817,21.9683456 36.2734513,22 35.9521614,22 C34.945453,22 34.0994023,21.709835 33.4139838,21.1294964 C32.7285653,20.5491578 32.3858612,19.773626 32.3858612,18.8028777 C32.3858612,17.3045489 33.360426,16.0383745 35.3095848,15.0043165 C36.4662285,14.3712199 38.2547155,13.5693094 40.6750996,12.5985612 L40.6750996,9.4647482 C40.6750996,8.83165151 40.4823285,8.34100894 40.0967806,7.99280576 C39.7112327,7.64460258 39.1971766,7.4705036 38.5545967,7.4705036 C37.9334362,7.4705036 37.4461538,7.64460258 37.0927349,7.99280576 C36.739316,8.34100894 36.5090617,8.73141271 36.4019651,9.16402878 C36.2948684,9.59664485 36.0967426,9.98704862 35.8075817,10.3352518 C35.5184208,10.683455 35.1382334,10.857554 34.6670082,10.857554 C34.3457183,10.857554 34.0619164,10.7467637 33.8155942,10.5251799 C33.5692719,10.303596 33.4461126,10.034534 33.4461126,9.71798561 C33.4461126,9.04268247 33.7888167,8.46762827 34.4742352,7.99280576 C35.1596537,7.51798324 35.8825452,7.20143964 36.6429313,7.04316547 C37.4033174,6.88489129 38.1154994,6.8057554 38.7794986,6.8057554 C40.0432389,6.8057554 41.1088345,7.04843882 41.9763173,7.53381295 C42.8438,8.01918708 43.2775349,8.84220043 43.2775349,10.0028777 L43.2775349,19.752518 C43.2775349,20.4911308 43.491725,20.8604317 43.9201115,20.8604317 C44.1557241,20.8604317 44.3592047,20.7127113 44.5305593,20.4172662 L44.9161053,20.7654676 Z M40.6750996,19.1510791 L40.6750996,13.3582734 C39.0900693,13.9913701 37.8584765,14.5611485 36.980284,15.0676259 C35.609447,15.8695484 34.9240388,16.9352452 34.9240388,18.2647482 C34.9240388,18.9611546 35.0953909,19.5520359 35.4381001,20.0374101 C35.7808094,20.5227842 36.2948655,20.7654676 36.980284,20.7654676 C37.1944773,20.7654676 37.4247316,20.7338133 37.6710539,20.6705036 C37.9173762,20.6071939 38.115502,20.5491609 38.2654373,20.4964029 C38.4153726,20.4436448 38.6402721,20.3381303 38.9401427,20.1798561 C39.2400133,20.0215819 39.4327844,19.9213431 39.5184617,19.8791367 C39.604139,19.8369302 39.8129743,19.7050371 40.1449739,19.4834532 C40.4769735,19.2618694 40.6536803,19.1510791 40.6750996,19.1510791 Z M74.1778205,21.6834532 L66.4026434,21.6834532 L66.4026434,21.3352518 C67.1737392,21.0398067 67.5592813,20.4911311 67.5592813,19.6892086 C67.5592813,19.4781764 67.5485718,19.3199046 67.5271525,19.2143885 L65.4709073,4.24172662 L60.5230673,21.6834532 L58.7559816,21.6834532 L53.4547245,4.24172662 L51.3984793,19.0561151 C51.3770599,19.1616312 51.3663504,19.3093516 51.3663504,19.4992806 C51.3663504,20.111274 51.5109287,20.5280564 51.8000897,20.7496403 C52.0892506,20.9712241 52.597952,21.166426 53.3262091,21.3352518 L53.3262091,21.6834532 L47.9606943,21.6834532 L47.9606943,21.3352518 C48.6032742,21.1453228 49.0852018,20.8973636 49.4064917,20.5913669 C49.7277817,20.2853702 49.9312622,19.826382 50.0169395,19.2143885 L52.2980865,3.13381295 C52.3195059,3.04940006 52.3302154,2.92278262 52.3302154,2.75395683 C52.3302154,2.24747948 52.1963466,1.86762717 51.928605,1.61438849 C51.6608634,1.36114981 51.259257,1.1606722 50.7237738,1.01294964 L50.7237738,0.569784173 L57.4708283,0.569784173 L61.4548034,13.5165468 L65.1174901,0.569784173 L71.7039005,0.569784173 L71.7039005,1.01294964 C70.7400308,1.30839476 70.2581031,1.86762178 70.2581031,2.69064748 C70.2581031,2.88057649 70.2688126,3.02829683 70.2902319,3.13381295 L72.6035078,19.2143885 C72.7534431,20.2906529 73.2782087,20.9976002 74.1778205,21.3352518 L74.1778205,21.6834532 Z M97,11.6489209 C97,14.8988172 96.0361447,17.3836844 94.1084052,19.1035971 C92.1806657,20.8235098 89.5461279,21.6834532 86.2047128,21.6834532 L75.9556156,21.6834532 L75.9556156,21.2402878 C76.8123888,20.9026362 77.2407689,20.2062403 77.2407689,19.1510791 L77.2407689,3.13381295 C77.2407689,2.56402593 77.1497381,2.12086489 76.9676738,1.80431655 C76.7856095,1.4877682 76.4482602,1.23453332 75.9556156,1.04460432 L75.9556156,0.569784173 L78.9757258,0.569784173 C79.6183056,0.569784173 80.5928704,0.52757836 81.8994494,0.443165468 C83.2060284,0.358752576 84.1913027,0.316546763 84.8553018,0.316546763 C88.4965876,0.316546763 91.4309915,1.31893482 93.6586016,3.32374101 C95.8862117,5.32854719 97,8.1035794 97,11.6489209 Z M91.7308717,11.3323741 C91.7308717,10.1083872 91.6184219,8.93717586 91.393519,7.81870504 C91.168616,6.70023422 90.7991382,5.62398599 90.2850743,4.58992806 C89.7710104,3.55587013 89.0267,2.72758105 88.0521205,2.10503597 C87.0775411,1.48249089 85.9262695,1.17122302 84.5982712,1.17122302 C83.0560796,1.17122302 82.2849954,1.84651603 82.2849954,3.1971223 L82.2849954,19.1510791 C82.2849954,20.26955 83.1845936,20.828777 84.9838172,20.828777 C86.3118155,20.828777 87.4363133,20.5544392 88.3573444,20.0057554 C89.2783755,19.4570716 89.9744932,18.7026427 90.4457185,17.742446 C90.9169437,16.7822494 91.2489383,15.7851371 91.4417122,14.7510791 C91.6344862,13.7170212 91.7308717,12.5774643 91.7308717,11.3323741 Z" id="EllaMD-Copy"></path>
        </g>
    </g>
</svg>