<?xml version="1.0" encoding="UTF-8"?>
<svg width="38px" height="90px" viewBox="0 0 38 90" version="1.1" xmlns="http://www.w3.org/2000/svg" xmlns:xlink="http://www.w3.org/1999/xlink">
    <!-- Generator: Sketch 43.2 (39069) - http://www.bohemiancoding.com/sketch -->
    <title>Artboard</title>
    <desc>Created with Sketch.</desc>
    <defs>
        <polygon id="path-1" points="90.8025 84.1455 90.8025 0.9045 0.77295 0.9045 0.77295 84.1455 90.8025 84.1455"></polygon>
    </defs>
    <g id="Page-1" stroke="none" stroke-width="1" fill="none" fill-rule="evenodd">
        <g id="Artboard" transform="translate(-148.000000, -57.000000)">
            <g id="Page-1" transform="translate(19.000000, 57.000000)">
                <polygon id="Fill-1" fill="#F9B65D" points="138.582 82.446 158.6955 82.446 158.6955 30.5745 138.582 30.5745"></polygon>
                <path d="M140.4189,1.09545 L140.4189,10.37595 L137.4834,10.37595 L137.4834,21.76845 L135.0924,21.76845 L135.0924,26.45295 L134.0049,26.45295 L134.0049,84.33645 L160.2054,84.33645 L160.2054,26.45295 L159.1194,26.45295 L159.1194,21.76845 L156.7269,21.76845 L156.7269,10.37595 L153.7914,10.37595 L153.7914,4.77195 L157.9239,4.77195 L157.9239,2.38245 L153.7914,2.38245 L153.7914,1.09545 L140.4189,1.09545 Z M134.8734,83.69145 L159.4464,83.69145 L159.4464,27.18795 L134.8734,27.18795 L134.8734,83.69145 Z" id="Fill-3" fill="#333140"></path>
                <g id="Group-7" transform="translate(70.500000, 0.190500)">
                    <mask id="mask-2" fill="white">
                        <use xlink:href="#path-1"></use>
                    </mask>
                    <g id="Clip-5"></g>
                    <path d="M64.3725,83.502 L88.9455,83.502 L88.9455,26.997 L64.3725,26.997 L64.3725,83.502 Z M88.62,26.262 L88.62,21.5775 L86.2275,21.5775 L86.2275,10.185 L83.292,10.185 L83.292,4.581 L87.4245,4.581 L87.4245,2.1915 L83.292,2.1915 L83.292,0.9045 L69.9195,0.9045 L69.9195,10.185 L66.984,10.185 L66.984,21.5775 L64.5915,21.5775 L64.5915,26.262 L63.5055,26.262 L63.5055,84.1455 L89.706,84.1455 L89.706,26.262 L88.62,26.262 Z" id="Stroke-4" stroke="#333140" stroke-width="2.1915" mask="url(#mask-2)"></path>
                </g>
                <polygon id="Fill-4" fill="#333140" points="149.69875 68 149.69875 70.586 145.63875 70.586 145.63875 68.042 146.45275 68.042 146.45275 69.552 147.19675 69.552 147.19675 68.112 148.01475 68.112 148.01475 69.552 148.88075 69.552 148.88075 68"></polygon>
                <polygon id="Fill-5" fill="#333140" points="149.69875 63 149.69875 65.608 145.63875 65.608 145.63875 64.572 148.72675 64.572 148.72675 63"></polygon>
                <polygon id="Fill-6" fill="#333140" points="149.69875 59 149.69875 61.608 145.63875 61.608 145.63875 60.572 148.72675 60.572 148.72675 59"></polygon>
                <path d="M148.17075,55.578 L146.68875,56.08 L148.17075,56.588 L148.17075,55.578 Z M149.70075,54 L149.70075,55.06 L148.87675,55.34 L148.87675,56.83 L149.70075,57.116 L149.70075,58.176 L145.63875,56.658 L145.63875,55.514 L149.70075,54 Z" id="Fill-7" fill="#333140"></path>
                <polygon id="Fill-8" fill="#333140" points="149.69875 48 149.69875 49.036 147.34675 49.036 148.70875 49.968 148.70875 50.05 147.34675 50.986 149.69875 50.986 149.69875 51.992 145.63875 51.992 145.63875 51.052 147.16075 49.998 145.63875 48.938 145.63875 48"></polygon>
                <path d="M147.68875,44.052 C147.35875,44.052 147.10075,44.104 146.91675,44.212 C146.73075,44.318 146.60875,44.446 146.54675,44.594 C146.48275,44.744 146.45275,44.896 146.45275,45.052 L146.45275,45.492 L148.85675,45.492 L148.85675,45.052 C148.85675,44.782 148.78075,44.548 148.62875,44.348 C148.47675,44.15 148.16275,44.052 147.68875,44.052 M147.74075,43 C148.15675,43 148.49075,43.064 148.74275,43.192 C148.99475,43.32 149.19875,43.47 149.35475,43.642 C149.58475,43.888 149.69875,44.234 149.69875,44.676 L149.69875,46.528 L145.63875,46.528 L145.63875,45.102 C145.63875,44.886 145.65075,44.704 145.67675,44.552 C145.70475,44.398 145.74075,44.26 145.78875,44.138 C145.83675,44.016 145.89075,43.912 145.95075,43.826 C146.01075,43.74 146.07275,43.664 146.14275,43.596 C146.25475,43.478 146.38875,43.376 146.54275,43.288 C146.69675,43.2 146.87675,43.13 147.07875,43.078 C147.28275,43.026 147.50275,43 147.74075,43" id="Fill-9" fill="#333140"></path>
            </g>
        </g>
    </g>
</svg>