<?xml version="1.0" encoding="UTF-8"?>
<svg width="162px" height="85px" viewBox="0 0 162 85" version="1.1" xmlns="http://www.w3.org/2000/svg" xmlns:xlink="http://www.w3.org/1999/xlink">
    <!-- Generator: Sketch 43.2 (39069) - http://www.bohemiancoding.com/sketch -->
    <title>Page 1</title>
    <desc>Created with Sketch.</desc>
    <defs>
        <polygon id="path-1" points="90.8025 84.1455 90.8025 0.9045 0.77295 0.9045 0.77295 84.1455 90.8025 84.1455"></polygon>
    </defs>
    <g id="Page-1" stroke="none" stroke-width="1" fill="none" fill-rule="evenodd">
        <g id="Artboard" transform="translate(-19.000000, -58.000000)">
            <g id="Page-1" transform="translate(19.000000, 57.000000)">
                <polygon id="Fill-1" fill="#F9B65D" points="138.582 82.446 158.6955 82.446 158.6955 30.5745 138.582 30.5745"></polygon>
                <path d="M140.4189,1.09545 L140.4189,10.37595 L137.4834,10.37595 L137.4834,21.76845 L135.0924,21.76845 L135.0924,26.45295 L134.0049,26.45295 L134.0049,84.33645 L160.2054,84.33645 L160.2054,26.45295 L159.1194,26.45295 L159.1194,21.76845 L156.7269,21.76845 L156.7269,10.37595 L153.7914,10.37595 L153.7914,4.77195 L157.9239,4.77195 L157.9239,2.38245 L153.7914,2.38245 L153.7914,1.09545 L140.4189,1.09545 Z M134.8734,83.69145 L159.4464,83.69145 L159.4464,27.18795 L134.8734,27.18795 L134.8734,83.69145 Z" id="Fill-3" fill="#333140"></path>
                <g id="Group-7" transform="translate(70.500000, 0.190500)">
                    <mask id="mask-2" fill="white">
                        <use xlink:href="#path-1"></use>
                    </mask>
                    <g id="Clip-5"></g>
                    <path d="M64.3725,83.502 L88.9455,83.502 L88.9455,26.997 L64.3725,26.997 L64.3725,83.502 Z M88.62,26.262 L88.62,21.5775 L86.2275,21.5775 L86.2275,10.185 L83.292,10.185 L83.292,4.581 L87.4245,4.581 L87.4245,2.1915 L83.292,2.1915 L83.292,0.9045 L69.9195,0.9045 L69.9195,10.185 L66.984,10.185 L66.984,21.5775 L64.5915,21.5775 L64.5915,26.262 L63.5055,26.262 L63.5055,84.1455 L89.706,84.1455 L89.706,26.262 L88.62,26.262 Z" id="Stroke-4" stroke="#333140" stroke-width="2.1915" mask="url(#mask-2)"></path>
                    <polygon id="Fill-6" fill="#F9B65D" mask="url(#mask-2)" points="0.77295 17.18745 50.14395 17.18745 50.14395 81.04695"></polygon>
                </g>
                <path d="M96.0009,62.586 L96.0009,67.8495" id="Stroke-8" stroke="#000000" stroke-width="2.1045" stroke-linecap="round" stroke-linejoin="round"></path>
                <path d="M98.63325,65.21835 L93.36825,65.21835" id="Stroke-9" stroke="#000000" stroke-width="2.1045" stroke-linecap="round" stroke-linejoin="round"></path>
                <path d="M82.9755,46.2969 L108.6975,46.2969" id="Stroke-10" stroke="#000000" stroke-width="2.1045" stroke-linecap="round" stroke-linejoin="round"></path>
                <path d="M82.9755,52.11525 L108.6975,52.11525" id="Stroke-11" stroke="#000000" stroke-width="2.1045" stroke-linecap="round" stroke-linejoin="round"></path>
                <path d="M82.9755,57.9336 L108.6975,57.9336" id="Stroke-12" stroke="#000000" stroke-width="2.1045" stroke-linecap="round" stroke-linejoin="round"></path>
                <polyline id="Stroke-13" stroke="#000000" stroke-width="2.1045" stroke-linecap="round" stroke-linejoin="round" points="83.1528 14.27175 67.0968 14.27175 67.0968 84.63825 124.2378 84.63825 124.2378 14.27175 107.8428 14.27175"></polyline>
                <polyline id="Stroke-15" stroke="#000000" stroke-width="2.1045" stroke-linecap="round" stroke-linejoin="round" points="75.01995 15.05475 75.01995 75.77775 116.31195 75.77775 116.31195 15.05475"></polyline>
                <g id="Group-26" transform="translate(0.000000, 4.690500)">
                    <path d="M94.36905,4.73115 C94.36905,5.44815 94.94955,6.02865 95.66655,6.02865 C96.38355,6.02865 96.96255,5.44815 96.96255,4.73115 C96.96255,4.01415 96.38355,3.43365 95.66655,3.43365 C94.94955,3.43365 94.36905,4.01415 94.36905,4.73115" id="Fill-16" fill="#000000"></path>
                    <path d="M100.5669,6.48015 L100.5669,4.95915 C100.5669,2.25315 98.3724,0.05865 95.6664,0.05865 C92.9604,0.05865 90.7659,2.25315 90.7659,4.95915 L90.7659,6.48015 L83.8584,6.48015 L83.8584,13.57815 L107.4729,13.57815 L107.4729,6.48015 L100.5669,6.48015 Z" id="Stroke-18" stroke="#000000" stroke-width="2.1045" stroke-linecap="round" stroke-linejoin="round"></path>
                    <polyline id="Stroke-20" stroke="#000000" stroke-width="2.1045" stroke-linecap="round" stroke-linejoin="round" points="83.44425 29.9067 89.38875 29.9067 90.56175 25.5462 92.99325 33.4482 94.92375 23.6397 97.77525 33.4482 100.12725 24.4992 102.95475 33.4482 105.11925 29.9067 108.55725 29.9067"></polyline>
                    <polygon id="Fill-22" fill="#F9B65D" points="2.9526 76.9605 2.9526 66.6855 58.7916 76.9605"></polygon>
                    <path d="M58.791,76.9605 L30.873,76.9605 L2.952,76.9605 L2.952,70.2135 C2.952,68.0145 4.3575,66.066 6.4545,65.3505 L6.6195,65.304 C9.3795,64.5585 10.9005,63.831 12.126,63.2445 C12.6,63.018 13.008,62.8215 13.407,62.6715 C16.71,61.413 21.2595,59.427 22.6485,56.7255 C22.7025,56.619 22.7415,56.532 22.7625,56.4825 L22.9665,56.0325 C25.7085,58.062 28.527,59.256 30.873,59.256 C33.2145,59.256 36.0345,58.062 38.7765,56.0325 L38.9805,56.4825 C39,56.529 39.039,56.616 39.09,56.721 C40.4775,59.4255 45.0315,61.4115 48.3375,62.6715 C48.7335,62.8215 49.1415,63.018 49.6155,63.2445 C50.8395,63.831 52.365,64.5585 55.125,65.304 L55.2885,65.3505 C57.3855,66.066 58.791,68.0145 58.791,70.2135 L58.791,76.9605 Z M10.581,54.411 C8.8005,53.874 7.5555,53.334 6.735,52.911 C9.606,49.2435 10.197,43.326 10.8195,37.1055 C10.851,36.7755 10.884,36.447 10.9185,36.117 C11.229,36.096 11.541,36.069 11.8545,36.0375 C12.0315,42.7755 15.66,49.1775 20.0745,53.544 L20.064,55.2915 C20.052,55.3185 20.04,55.347 20.0265,55.3725 C19.926,55.569 19.749,55.824 19.4385,56.1315 C16.3755,55.779 13.311,55.2345 10.581,54.411 L10.581,54.411 Z M14.769,19.9005 C16.1835,17.4075 18.0285,15.5715 20.412,14.2845 C23.1405,12.81 26.6625,12.057 30.867,12.0465 C34.2945,12.054 37.2645,12.555 39.723,13.536 C38.745,14.904 35.598,19.104 31.011,23.247 C27.7785,26.1675 24.477,28.4895 21.1935,30.147 C17.838,31.842 14.499,32.841 11.238,33.1305 C11.7975,28.338 12.645,23.649 14.769,19.9005 L14.769,19.9005 Z M46.9725,19.9005 C48.345,22.32 49.1835,25.134 49.758,28.1145 C43.947,27.318 38.8485,24.135 36.2655,22.2555 C39.672,18.7095 41.8275,15.6855 42.369,14.904 C44.259,16.14 45.7725,17.784 46.9725,19.9005 L46.9725,19.9005 Z M55.008,52.911 C54.186,53.334 52.944,53.874 51.162,54.411 C48.432,55.2345 45.369,55.779 42.3075,56.1315 C41.9955,55.824 41.8185,55.569 41.7165,55.3725 C41.703,55.347 41.6925,55.3185 41.6805,55.2915 L41.667,53.544 C46.1955,49.0635 49.896,42.447 49.896,35.5185 C49.896,33.963 49.7595,32.4735 49.503,31.0575 C49.752,31.0905 50.0025,31.119 50.253,31.1445 C50.5245,33.114 50.7255,35.1195 50.925,37.107 C51.546,43.326 52.1355,49.2435 55.008,52.911 L55.008,52.911 Z M20.862,50.0775 C17.019,45.699 14.8125,40.4145 14.7975,35.568 C17.3715,35.0115 19.9665,34.074 22.5585,32.763 C26.082,30.978 29.61,28.4955 33.042,25.389 C33.42,25.0485 33.7845,24.7065 34.143,24.366 C36.4335,26.091 40.908,29.0325 46.359,30.4455 C46.7475,32.0475 46.947,33.744 46.947,35.5185 C46.947,40.3785 44.736,45.684 40.8825,50.0775 C39.189,52.008 37.29,53.622 35.3925,54.747 C33.7005,55.752 32.094,56.3055 30.873,56.3055 C29.649,56.3055 28.0425,55.752 26.3505,54.747 C24.453,53.622 22.5555,52.008 20.862,50.0775 L20.862,50.0775 Z M56.1675,62.535 L55.9155,62.4615 C52.254,61.4775 51.015,60.534 49.386,59.913 C48.1335,59.4345 47.082,58.989 46.1985,58.5705 C48.48,58.1835 50.5605,57.696 52.4235,57.111 C56.5995,55.794 58.1535,54.429 58.3185,54.279 L59.5455,53.142 L58.263,52.065 C55.1175,49.422 54.5085,43.2975 53.8605,36.813 C53.22,30.4005 52.5585,23.7705 49.539,18.4455 C45.987,12.1785 39.882,9.1185 30.867,9.0945 C21.8625,9.1185 15.7575,12.1785 12.201,18.444 C9.183,23.769 8.5215,30.4005 7.8825,36.813 C7.236,43.2975 6.624,49.422 3.477,52.065 L2.1975,53.142 L3.426,54.279 C3.5865,54.429 5.1435,55.794 9.321,57.111 C11.184,57.696 13.26,58.1835 15.5445,58.5705 C14.661,58.989 13.6095,59.4345 12.3555,59.913 C10.725,60.534 9.4875,61.4775 5.826,62.4615 L5.5755,62.535 C2.244,63.6345 0,66.726 0,70.2135 L0,79.9125 L30.873,79.9125 L61.7415,79.9125 L61.7415,70.2135 C61.7415,66.726 59.5005,63.6345 56.1675,62.535 L56.1675,62.535 Z" id="Fill-24" fill="#000000"></path>
                </g>
                <polygon id="Fill-4" fill="#333140" points="149.69875 68 149.69875 70.586 145.63875 70.586 145.63875 68.042 146.45275 68.042 146.45275 69.552 147.19675 69.552 147.19675 68.112 148.01475 68.112 148.01475 69.552 148.88075 69.552 148.88075 68"></polygon>
                <polygon id="Fill-5" fill="#333140" points="149.69875 63 149.69875 65.608 145.63875 65.608 145.63875 64.572 148.72675 64.572 148.72675 63"></polygon>
                <polygon id="Fill-6" fill="#333140" points="149.69875 59 149.69875 61.608 145.63875 61.608 145.63875 60.572 148.72675 60.572 148.72675 59"></polygon>
                <path d="M148.17075,55.578 L146.68875,56.08 L148.17075,56.588 L148.17075,55.578 Z M149.70075,54 L149.70075,55.06 L148.87675,55.34 L148.87675,56.83 L149.70075,57.116 L149.70075,58.176 L145.63875,56.658 L145.63875,55.514 L149.70075,54 Z" id="Fill-7" fill="#333140"></path>
                <polygon id="Fill-8" fill="#333140" points="149.69875 48 149.69875 49.036 147.34675 49.036 148.70875 49.968 148.70875 50.05 147.34675 50.986 149.69875 50.986 149.69875 51.992 145.63875 51.992 145.63875 51.052 147.16075 49.998 145.63875 48.938 145.63875 48"></polygon>
                <path d="M147.68875,44.052 C147.35875,44.052 147.10075,44.104 146.91675,44.212 C146.73075,44.318 146.60875,44.446 146.54675,44.594 C146.48275,44.744 146.45275,44.896 146.45275,45.052 L146.45275,45.492 L148.85675,45.492 L148.85675,45.052 C148.85675,44.782 148.78075,44.548 148.62875,44.348 C148.47675,44.15 148.16275,44.052 147.68875,44.052 M147.74075,43 C148.15675,43 148.49075,43.064 148.74275,43.192 C148.99475,43.32 149.19875,43.47 149.35475,43.642 C149.58475,43.888 149.69875,44.234 149.69875,44.676 L149.69875,46.528 L145.63875,46.528 L145.63875,45.102 C145.63875,44.886 145.65075,44.704 145.67675,44.552 C145.70475,44.398 145.74075,44.26 145.78875,44.138 C145.83675,44.016 145.89075,43.912 145.95075,43.826 C146.01075,43.74 146.07275,43.664 146.14275,43.596 C146.25475,43.478 146.38875,43.376 146.54275,43.288 C146.69675,43.2 146.87675,43.13 147.07875,43.078 C147.28275,43.026 147.50275,43 147.74075,43" id="Fill-9" fill="#333140"></path>
            </g>
        </g>
    </g>
</svg>