<?xml version="1.0" encoding="UTF-8"?>
<svg width="124px" height="130px" viewBox="0 0 124 130" version="1.1" xmlns="http://www.w3.org/2000/svg" xmlns:xlink="http://www.w3.org/1999/xlink">
    <!-- Generator: Sketch 43.2 (39069) - http://www.bohemiancoding.com/sketch -->
    <title>Page 1</title>
    <desc>Created with Sketch.</desc>
    <defs>
        <polygon id="path-1" points="0.0009 132 123.5199 132 123.5199 2.682 0.0009 2.682 0.0009 132"></polygon>
    </defs>
    <g id="Page-1" stroke="none" stroke-width="1" fill="none" fill-rule="evenodd">
        <g id="Artboard" transform="translate(-37.000000, -36.000000)">
            <g id="Page-1" transform="translate(37.000000, 33.000000)">
                <path d="M84.9885,59.6322 C84.9885,61.1562 83.7525,62.3922 82.2315,62.3922 C80.7075,62.3922 79.4715,61.1562 79.4715,59.6322 C79.4715,58.1082 80.7075,56.8722 82.2315,56.8722 C83.7525,56.8722 84.9885,58.1082 84.9885,59.6322" id="Fill-1" fill="#FFFFFF"></path>
                <path d="M84.9885,59.6322 C84.9885,61.1562 83.7525,62.3922 82.2315,62.3922 C80.7075,62.3922 79.4715,61.1562 79.4715,59.6322 C79.4715,58.1082 80.7075,56.8722 82.2315,56.8722 C83.7525,56.8722 84.9885,58.1082 84.9885,59.6322 Z" id="Stroke-3" stroke="#EC1C24" stroke-width="3.669"></path>
                <path d="M59.7477,80.4738 C59.7477,81.9978 58.5117,83.2338 56.9907,83.2338 C55.4667,83.2338 54.2307,81.9978 54.2307,80.4738 C54.2307,78.9498 55.4667,77.7138 56.9907,77.7138 C58.5117,77.7138 59.7477,78.9498 59.7477,80.4738" id="Fill-5" fill="#FFFFFF"></path>
                <path d="M59.7477,80.4738 C59.7477,81.9978 58.5117,83.2338 56.9907,83.2338 C55.4667,83.2338 54.2307,81.9978 54.2307,80.4738 C54.2307,78.9498 55.4667,77.7138 56.9907,77.7138 C58.5117,77.7138 59.7477,78.9498 59.7477,80.4738 Z" id="Stroke-7" stroke="#EC1C24" stroke-width="3.669"></path>
                <g id="Group-11" transform="translate(0.000000, 0.319500)">
                    <mask id="mask-2" fill="white">
                        <use xlink:href="#path-1"></use>
                    </mask>
                    <g id="Clip-10"></g>
                    <path d="M118.1349,126.6105 L61.7589,126.6105 L5.3859,126.6105 L5.3859,114.2925 C5.3859,110.2755 7.9539,106.7175 11.7849,105.4125 L12.0849,105.3225 C17.1249,103.9665 19.9059,102.6375 22.1409,101.5635 C23.0079,101.1525 23.7549,100.7955 24.4809,100.5165 C30.5139,98.2185 38.8269,94.5885 41.3589,89.6595 C41.4549,89.4645 41.5269,89.3025 41.5659,89.2125 L42.0159,88.2135 L42.0249,87.0765 L42.0459,83.9625 C48.5319,90.3795 55.9479,94.3965 61.7589,94.3965 C67.5729,94.3965 74.9889,90.3795 81.4749,83.9625 L81.4989,87.0765 L81.5049,88.2135 L81.9549,89.2125 C81.9939,89.2965 82.0629,89.4615 82.1589,89.6505 C84.6939,94.5885 93.0069,98.2185 99.0459,100.5195 C99.7659,100.7955 100.5159,101.1525 101.3799,101.5635 C103.6149,102.6375 106.3989,103.9665 111.4359,105.3225 L111.7389,105.4125 C115.5669,106.7175 118.1349,110.2755 118.1349,114.2925 L118.1349,126.6105 Z M33.1509,43.2645 L37.7229,35.0595 C37.7229,35.0595 49.2579,37.7565 61.7589,37.7565 C74.2629,37.7565 86.2179,35.0595 86.2179,35.0595 L89.7069,40.5015 C90.6399,43.7985 91.1169,47.3295 91.1169,51.0495 C91.1169,59.9235 87.0759,69.6105 80.0409,77.6325 C76.9449,81.1605 73.4829,84.1065 70.0179,86.1645 C66.9279,87.9975 63.9939,89.0085 61.7589,89.0085 C59.5269,89.0085 56.5959,87.9975 53.5059,86.1645 C50.0409,84.1065 46.5729,81.1605 43.4799,77.6325 C36.4449,69.6105 32.4069,59.9235 32.4069,51.0495 C32.4069,48.3495 32.6559,45.7485 33.1509,43.2645 L33.1509,43.2645 Z M33.3429,27.4515 C34.7919,23.8035 36.9489,20.6205 39.7539,17.9925 C42.2979,15.6045 45.4329,13.6095 49.0809,12.0555 C56.8209,8.7615 65.2659,8.0685 70.9839,8.0685 C72.8349,8.0685 74.5209,8.1405 76.0149,8.2485 C75.6669,8.9295 75.3939,9.5775 75.1839,10.1715 C74.1129,13.1565 74.2659,15.4875 74.3379,16.1295 L74.8149,21.0855 L79.7799,20.9175 C80.0139,20.9205 82.2579,20.9625 84.7899,21.9075 C87.8439,23.0475 89.9019,24.9225 91.0839,27.6435 C91.9539,29.6475 92.4879,32.1825 92.6709,35.1405 L90.7539,32.1555 L88.7139,28.9755 L85.0329,29.8035 C84.9189,29.8305 73.5279,32.3685 61.7589,32.3685 C50.0709,32.3685 39.0579,29.8395 38.9469,29.8125 L34.9959,28.8915 L33.0189,32.4375 L31.6149,34.9515 C31.9389,32.0655 32.5149,29.5395 33.3429,27.4515 L33.3429,27.4515 Z M113.3409,100.2675 L112.8849,100.1355 C106.1979,98.3385 103.9359,96.6135 100.9599,95.4825 C90.4029,91.4595 87.6549,88.5585 86.9529,87.1905 C86.9289,87.1425 86.9079,87.0885 86.8869,87.0405 L86.8209,77.8125 C92.4579,70.2705 96.4899,60.8505 96.5019,51.0975 L96.5049,51.0975 C96.5049,51.0975 100.4559,35.7045 96.0279,25.4985 C91.7949,15.7455 80.7309,15.5295 79.7589,15.5295 C79.7139,15.5295 79.6959,15.5325 79.6959,15.5325 C79.6959,15.5325 79.0179,9.5235 86.2119,5.2005 C87.4179,4.4775 80.5179,2.6805 70.9839,2.6805 C56.4249,2.6805 35.7219,6.8685 28.3359,25.4625 C23.7459,37.0275 27.1359,54.0405 27.1359,54.0405 L27.1449,54.0315 C27.8619,62.7285 31.6329,71.0265 36.6999,77.8125 L36.6339,87.0405 C36.6129,87.0885 36.5949,87.1425 36.5679,87.1905 C35.8659,88.5585 33.1179,91.4595 22.5639,95.4825 C19.5849,96.6135 17.3229,98.3385 10.6359,100.1355 L10.1799,100.2675 C4.0929,102.2805 0.0009,107.9235 0.0009,114.2925 L0.0009,132.0015 L61.7589,132.0015 L123.5199,132.0015 L123.5199,114.2925 C123.5199,107.9235 119.4279,102.2805 113.3409,100.2675 L113.3409,100.2675 Z" id="Fill-9" fill="#000000" mask="url(#mask-2)"></path>
                </g>
            </g>
        </g>
    </g>
</svg>