<?xml version="1.0" encoding="UTF-8"?>
<svg width="113px" height="130px" viewBox="0 0 113 130" version="1.1" xmlns="http://www.w3.org/2000/svg" xmlns:xlink="http://www.w3.org/1999/xlink">
    <!-- Generator: Sketch 43.2 (39069) - http://www.bohemiancoding.com/sketch -->
    <title>Page 1</title>
    <desc>Created with Sketch.</desc>
    <defs>
        <polygon id="path-1" points="0 131.9991 0 2.682 112.7424 2.682 112.7424 131.9991 4.67460543e-15 131.9991"></polygon>
    </defs>
    <g id="Page-1" stroke="none" stroke-width="1" fill="none" fill-rule="evenodd">
        <g id="Artboard" transform="translate(-43.000000, -36.000000)">
            <g id="Page-1" transform="translate(43.000000, 33.000000)">
                <g id="Group-3" transform="translate(0.000000, 0.317400)">
                    <mask id="mask-2" fill="white">
                        <use xlink:href="#path-1"></use>
                    </mask>
                    <g id="Clip-2"></g>
                    <path d="M94.7844,97.8081 C94.2414,97.7931 93.7104,97.7601 93.1884,97.7121 C92.0784,98.9511 90.8244,100.0821 89.3364,100.9731 C89.7354,101.1531 90.1554,101.3541 90.6024,101.5671 C92.8374,102.6381 95.6184,103.9701 100.6584,105.3261 L100.9614,105.4131 C104.7924,106.7181 107.3574,110.2761 107.3574,114.2901 L107.3574,126.6141 L5.3874,126.6141 L5.3874,114.2901 C5.3874,110.2761 7.9524,106.7181 11.7834,105.4131 L12.0834,105.3261 C17.1234,103.9701 19.9074,102.6381 22.1394,101.5671 C23.0034,101.1531 23.7534,100.7931 24.4794,100.5171 C30.5094,98.2221 38.8164,94.5951 41.3574,89.6601 C41.4534,89.4681 41.5254,89.3061 41.5644,89.2161 L41.9364,88.3941 C46.6824,91.9101 51.5454,94.0281 55.6854,94.2411 C55.0344,92.4591 54.6204,90.5841 54.4554,88.6761 C52.5684,88.2921 50.3874,87.3981 48.1104,86.0511 C44.6514,83.9961 41.1864,81.0471 38.0934,77.5221 C31.0494,69.4971 27.0174,59.8101 27.0174,50.9331 C27.0174,50.1111 27.0414,49.2921 27.0894,48.4851 L85.6554,48.4851 C85.7034,49.2921 85.7244,50.1111 85.7244,50.9331 C85.7244,52.1211 85.6314,53.3271 85.4844,54.5361 C87.3774,55.1691 89.0484,56.0721 90.5034,57.1881 C90.8604,55.1241 91.1124,53.0451 91.1124,50.9331 C91.1124,49.1691 91.0194,47.4531 90.8244,45.7881 C90.8244,44.3001 89.6214,43.0941 88.1334,43.0941 L86.2134,43.0941 L86.2134,40.4001 C86.2134,38.9121 85.0044,37.7061 83.5164,37.7061 C82.0284,37.7061 80.8194,38.9121 80.8194,40.4001 L80.8194,43.0941 L75.4344,43.0941 L75.4344,40.4001 C75.4344,38.9121 74.2254,37.7061 72.7374,37.7061 C71.2494,37.7061 70.0464,38.9121 70.0464,40.4001 L70.0464,43.0941 L64.6554,43.0941 L64.6554,40.4001 C64.6554,38.9121 63.4524,37.7061 61.9644,37.7061 C60.4764,37.7061 59.2704,38.9121 59.2704,40.4001 L59.2704,43.0941 L53.8824,43.0941 L53.8824,40.4001 C53.8824,38.9121 52.6734,37.7061 51.1854,37.7061 C49.6974,37.7061 48.4914,38.9121 48.4914,40.4001 L48.4914,43.0941 L43.1034,43.0941 L43.1034,40.4001 C43.1034,38.9121 41.8974,37.7061 40.4094,37.7061 C38.9184,37.7061 37.7184,38.9121 37.7184,40.4001 L37.7184,43.0941 L32.3274,43.0941 L32.3274,40.4001 C32.3274,38.9121 31.1214,37.7061 29.6334,37.7061 C28.1454,37.7061 26.9394,38.9121 26.9394,40.4001 L26.9394,43.0941 L24.6114,43.0941 C23.1234,43.0941 21.9174,44.3001 21.9084,45.7881 C21.8484,46.3371 21.6264,50.3661 21.6264,50.9331 C21.6264,63.5871 28.3884,75.6711 36.6594,83.8521 L36.6354,87.0411 C36.6114,87.0921 36.5934,87.1431 36.5694,87.1911 C35.8644,88.5621 33.1194,91.4631 22.5624,95.4831 C21.5664,95.8641 20.6514,96.3081 19.6254,96.7971 C18.6984,91.2051 17.3244,81.1791 17.0934,69.7911 C16.8864,59.6991 17.6124,50.5881 19.2474,42.7101 C21.2214,33.2121 24.5124,25.5651 29.0304,19.9731 C32.0664,16.2171 35.7324,13.3191 39.9264,11.3631 C44.6094,9.1791 50.1444,8.0721 56.3724,8.0721 C62.5974,8.0721 68.1234,9.1791 72.8094,11.3631 C77.0004,13.3161 80.6664,16.2111 83.7024,19.9641 C88.2084,25.5321 91.4964,33.1491 93.4704,42.6081 C94.4994,47.5341 95.1414,52.9821 95.4474,58.8231 C97.4274,58.8381 99.2424,59.1141 100.9074,59.5761 C99.6774,32.5101 90.5784,2.6811 56.3724,2.6811 C0.9714,2.6811 11.3934,80.9331 14.5224,98.9451 C13.4124,99.3351 12.1344,99.7341 10.6374,100.1331 L10.1784,100.2681 C4.0944,102.2781 -0.0006,107.9211 -0.0006,114.2901 L-0.0006,131.9991 L112.7424,131.9991 L112.7424,114.2901 C112.7424,108.9021 109.8144,104.0331 105.2244,101.4441" id="Fill-1" fill="#000000" mask="url(#mask-2)"></path>
                </g>
                <path d="M85.5558,86.313 C85.5558,90.507 82.1538,93.909 77.9598,93.909 C73.7628,93.909 70.3638,90.507 70.3638,86.313 C70.3638,82.119 77.9598,70.035 77.9598,70.035 C77.9598,70.035 85.5558,82.119 85.5558,86.313" id="Fill-4" fill="#000000"></path>
                <path d="M100.5633,81.9096 C100.5633,94.5546 90.3123,104.8026 77.6703,104.8026 C65.0253,104.8026 54.7743,94.5546 54.7743,81.9096 C54.7743,69.2646 65.0253,59.0136 77.6703,59.0136 C90.3123,59.0136 100.5633,69.2646 100.5633,81.9096 Z" id="Stroke-6" stroke="#000000" stroke-width="5.946"></path>
                <path d="M60.3606,67.4166 L92.7396,99.7986" id="Stroke-8" stroke="#000000" stroke-width="5.946"></path>
            </g>
        </g>
    </g>
</svg>