<?xml version="1.0" encoding="UTF-8"?>
<svg width="113px" height="130px" viewBox="0 0 113 130" version="1.1" xmlns="http://www.w3.org/2000/svg" xmlns:xlink="http://www.w3.org/1999/xlink">
    <!-- Generator: Sketch 43.2 (39069) - http://www.bohemiancoding.com/sketch -->
    <title>Page 1</title>
    <desc>Created with Sketch.</desc>
    <defs>
        <polygon id="path-1" points="112.7481 132 0 132 0 2.682 112.7481 2.682"></polygon>
    </defs>
    <g id="Page-1" stroke="none" stroke-width="1" fill="none" fill-rule="evenodd">
        <g id="Artboard" transform="translate(-43.000000, -36.000000)">
            <g id="Page-1" transform="translate(43.000000, 33.000000)">
                <g id="Group-3" transform="translate(0.000000, 0.319500)">
                    <mask id="mask-2" fill="white">
                        <use xlink:href="#path-1"></use>
                    </mask>
                    <g id="Clip-2"></g>
                    <path d="M107.3571,126.6123 L56.3751,126.6123 L5.3871,126.6123 L5.3871,114.2943 C5.3871,110.2743 7.9581,106.7163 11.7891,105.4143 L12.0891,105.3213 C17.1231,103.9683 19.9071,102.6363 22.1451,101.5623 C23.0091,101.1543 23.7531,100.7943 24.4821,100.5183 C30.5091,98.2203 38.8221,94.5933 41.3601,89.6583 C41.4591,89.4693 41.5311,89.3043 41.5671,89.2143 L41.9391,88.3953 C46.9431,92.1033 52.0941,94.2813 56.3751,94.2813 C60.6531,94.2813 65.8041,92.1033 70.8111,88.3953 L71.1831,89.2143 C71.2161,89.2983 71.2881,89.4633 71.3841,89.6523 C73.9191,94.5873 82.2321,98.2173 88.2711,100.5183 C88.9941,100.7943 89.7411,101.1543 90.6051,101.5623 C92.8431,102.6363 95.6211,103.9683 100.6641,105.3213 L100.9641,105.4113 C104.7921,106.7163 107.3571,110.2743 107.3571,114.2943 L107.3571,126.6123 Z M17.0961,69.7893 C17.0061,65.2773 17.1021,60.9603 17.3751,56.8653 C18.8211,56.5413 20.3451,56.1093 21.9351,55.5783 C23.3271,66.5013 29.4141,76.6743 36.6591,83.8473 L36.6351,87.0393 C36.6111,87.0873 36.5961,87.1413 36.5721,87.1893 C35.8701,88.5603 33.1221,91.4583 22.5621,95.4843 C21.5691,95.8593 20.6571,96.3033 19.6311,96.7953 C18.7041,91.2033 17.3301,81.1773 17.0961,69.7893 L17.0961,69.7893 Z M29.0361,19.9683 C32.0691,16.2153 35.7351,13.3173 39.9321,11.3613 C44.6151,9.1743 50.1501,8.0673 56.3751,8.0673 C62.5971,8.0673 68.1291,9.1743 72.8091,11.3583 C74.1261,11.9733 75.3951,12.6783 76.6071,13.4763 C73.4541,16.1793 64.5291,23.6913 53.8821,31.3443 C39.1281,41.9463 26.8251,48.7173 17.9031,51.1773 C18.2451,48.2193 18.6951,45.3933 19.2561,42.7083 C21.2241,33.2103 24.5151,25.5603 29.0361,19.9683 L29.0361,19.9683 Z M93.4731,42.6063 C93.5931,43.1763 93.7071,43.7523 93.8121,44.3313 L68.5251,27.0633 C74.8071,22.1223 79.4181,18.1743 80.8881,16.8993 C81.8781,17.8443 82.8171,18.8643 83.7051,19.9593 C88.2141,25.5333 91.4991,33.1503 93.4731,42.6063 L93.4731,42.6063 Z M38.0961,77.5203 C31.7511,70.2903 27.8481,61.7013 27.1401,53.5773 C35.4891,49.9863 45.5001,44.0103 57.0651,35.6913 C59.4921,33.9453 61.8351,32.2083 64.0401,30.5313 L85.3071,45.0513 C85.5831,46.9503 85.7301,48.9153 85.7301,50.9313 C85.7301,59.8053 81.6921,69.4983 74.6571,77.5203 C71.5611,81.0453 68.0991,83.9943 64.6311,86.0493 C61.5381,87.8853 58.6101,88.8963 56.3751,88.8963 C54.1431,88.8963 51.2061,87.8853 48.1191,86.0493 C44.6541,83.9943 41.1891,81.0453 38.0961,77.5203 L38.0961,77.5203 Z M90.1851,95.4843 C79.6281,91.4583 76.8831,88.5603 76.1781,87.1893 C76.1571,87.1413 76.1331,87.0873 76.1091,87.0393 L76.0881,83.8503 C84.3561,75.6693 91.1181,63.5823 91.1181,50.9313 C91.1181,50.2773 91.1061,49.6323 91.0791,48.9873 L94.8951,51.5943 C95.5251,57.1563 95.7771,63.1743 95.6571,69.5973 C95.4351,81.0363 94.0491,91.1613 93.1191,96.7953 C92.0931,96.3033 91.1751,95.8593 90.1851,95.4843 L90.1851,95.4843 Z M102.5661,100.2663 L102.1071,100.1343 C100.6071,99.7323 99.3291,99.3333 98.2161,98.9403 C101.3511,80.9253 111.7701,2.6793 56.3751,2.6793 C0.9741,2.6793 11.3931,80.9253 14.5281,98.9403 C13.4151,99.3333 12.1401,99.7323 10.6401,100.1343 L10.1781,100.2663 C4.0941,102.2793 -0.0009,107.9253 -0.0009,114.2943 L-0.0009,132.0003 L56.3751,132.0003 L112.7481,132.0003 L112.7481,114.2943 C112.7481,107.9253 108.6531,102.2793 102.5661,100.2663 L102.5661,100.2663 Z" id="Fill-1" fill="#000000" mask="url(#mask-2)"></path>
                </g>
                <path d="M57.5346,86.3088 L64.0116,34.0818 L83.7486,47.3268 C83.7486,47.3268 80.6736,74.0268 57.5346,86.3088" id="Fill-4" fill="#E87070"></path>
            </g>
        </g>
    </g>
</svg>