<?xml version="1.0" encoding="UTF-8"?>
<svg width="113px" height="130px" viewBox="0 0 113 130" version="1.1" xmlns="http://www.w3.org/2000/svg" xmlns:xlink="http://www.w3.org/1999/xlink">
    <!-- Generator: Sketch 43.2 (39069) - http://www.bohemiancoding.com/sketch -->
    <title>Page 1</title>
    <desc>Created with Sketch.</desc>
    <defs>
        <polygon id="path-1" points="112.7481 132 0 132 0 2.682 112.7481 2.682"></polygon>
    </defs>
    <g id="Page-1" stroke="none" stroke-width="1" fill="none" fill-rule="evenodd">
        <g id="Artboard" transform="translate(-43.000000, -36.000000)">
            <g id="Page-1" transform="translate(43.000000, 33.000000)">
                <g id="Group-3" transform="translate(0.000000, 0.319500)">
                    <mask id="mask-2" fill="white">
                        <use xlink:href="#path-1"></use>
                    </mask>
                    <g id="Clip-2"></g>
                    <path d="M107.3571,126.6105 L56.3751,126.6105 L5.3871,126.6105 L5.3871,114.2925 C5.3871,110.2755 7.9581,106.7175 11.7891,105.4125 L12.0891,105.3225 C17.1231,103.9665 19.9071,102.6375 22.1451,101.5635 C23.0091,101.1525 23.7531,100.7955 24.4821,100.5165 C30.5091,98.2185 38.8221,94.5915 41.3601,89.6595 C41.4591,89.4675 41.5311,89.3025 41.5671,89.2125 L41.9391,88.3935 C46.9431,92.1015 52.0941,94.2825 56.3751,94.2825 C60.6531,94.2825 65.8041,92.1015 70.8111,88.3935 L71.1831,89.2125 C71.2161,89.2965 71.2881,89.4615 71.3841,89.6505 C73.9191,94.5885 82.2321,98.2185 88.2711,100.5195 C88.9941,100.7955 89.7411,101.1525 90.6051,101.5635 C92.8431,102.6375 95.6211,103.9665 100.6641,105.3225 L100.9641,105.4125 C104.7921,106.7175 107.3571,110.2755 107.3571,114.2925 L107.3571,126.6105 Z M17.0961,69.7905 C17.0061,65.2785 17.1021,60.9615 17.3751,56.8635 C18.8211,56.5425 20.3451,56.1105 21.9351,55.5765 C23.3271,66.5025 29.4141,76.6725 36.6591,83.8455 L36.6351,87.0405 C36.6111,87.0885 36.5961,87.1425 36.5721,87.1905 C35.8701,88.5585 33.1221,91.4595 22.5621,95.4825 C21.5691,95.8605 20.6571,96.3015 19.6311,96.7965 C18.7041,91.2045 17.3301,81.1785 17.0961,69.7905 L17.0961,69.7905 Z M29.0361,19.9695 C32.0691,16.2135 35.7351,13.3185 39.9321,11.3595 C44.6151,9.1755 50.1501,8.0685 56.3751,8.0685 C62.5971,8.0685 68.1291,9.1755 72.8091,11.3595 C74.1261,11.9715 75.3951,12.6765 76.6071,13.4775 C73.4541,16.1805 64.5291,23.6895 53.8821,31.3425 C39.1281,41.9475 26.8251,48.7185 17.9031,51.1785 C18.2451,48.2205 18.6951,45.3915 19.2561,42.7065 C21.2241,33.2115 24.5151,25.5615 29.0361,19.9695 L29.0361,19.9695 Z M93.4731,42.6045 C93.5931,43.1745 93.7071,43.7535 93.8121,44.3325 L68.5251,27.0615 C74.8071,22.1235 79.4181,18.1725 80.8881,16.8975 C81.8781,17.8455 82.8171,18.8655 83.7051,19.9605 C88.2141,25.5315 91.4991,33.1515 93.4731,42.6045 L93.4731,42.6045 Z M38.0961,77.5185 C31.7511,70.2885 27.8481,61.6995 27.1401,53.5755 C35.4891,49.9845 45.5001,44.0115 57.0651,35.6925 C59.4921,33.9465 61.8351,32.2065 64.0401,30.5295 L85.3071,45.0495 C85.5831,46.9485 85.7301,48.9165 85.7301,50.9325 C85.7301,59.8035 81.6921,69.4965 74.6571,77.5185 C71.5611,81.0465 68.0991,83.9955 64.6311,86.0475 C61.5381,87.8835 58.6101,88.8945 56.3751,88.8945 C54.1431,88.8945 51.2061,87.8835 48.1191,86.0475 C44.6541,83.9955 41.1891,81.0465 38.0961,77.5185 L38.0961,77.5185 Z M90.1851,95.4825 C79.6281,91.4595 76.8831,88.5585 76.1781,87.1905 C76.1571,87.1425 76.1331,87.0885 76.1091,87.0405 L76.0881,83.8515 C84.3561,75.6705 91.1181,63.5835 91.1181,50.9325 C91.1181,50.2785 91.1061,49.6305 91.0791,48.9885 L94.8951,51.5955 C95.5251,57.1545 95.7771,63.1755 95.6571,69.5985 C95.4351,81.0345 94.0491,91.1625 93.1191,96.7935 C92.0931,96.3015 91.1751,95.8605 90.1851,95.4825 L90.1851,95.4825 Z M102.5661,100.2675 L102.1071,100.1355 C100.6071,99.7305 99.3291,99.3315 98.2161,98.9415 C101.3511,80.9265 111.7701,2.6805 56.3751,2.6805 C0.9741,2.6805 11.3931,80.9265 14.5281,98.9415 C13.4151,99.3315 12.1401,99.7305 10.6401,100.1355 L10.1781,100.2675 C4.0941,102.2805 -0.0009,107.9235 -0.0009,114.2925 L-0.0009,132.0015 L56.3751,132.0015 L112.7481,132.0015 L112.7481,114.2925 C112.7481,107.9235 108.6531,102.2805 102.5661,100.2675 L102.5661,100.2675 Z" id="Fill-1" fill="#000000" mask="url(#mask-2)"></path>
                </g>
                <path d="M35.5854,62.9457 L45.5394,72.8997" id="Stroke-4" stroke="#000031" stroke-width="1.5"></path>
                <path d="M43.4985,64.2231 L36.6075,71.1141" id="Stroke-6" stroke="#000031" stroke-width="1.5"></path>
                <path d="M77.4462,62.9457 L67.4922,72.8997" id="Stroke-8" stroke="#000031" stroke-width="1.5"></path>
                <path d="M69.5346,64.2231 L76.4256,71.1141" id="Stroke-10" stroke="#000031" stroke-width="1.5"></path>
            </g>
        </g>
    </g>
</svg>