<?xml version="1.0" encoding="UTF-8"?>
<svg width="124px" height="130px" viewBox="0 0 124 130" version="1.1" xmlns="http://www.w3.org/2000/svg" xmlns:xlink="http://www.w3.org/1999/xlink">
    <!-- Generator: Sketch 43.2 (39069) - http://www.bohemiancoding.com/sketch -->
    <title>Page 1</title>
    <desc>Created with Sketch.</desc>
    <defs>
        <polygon id="path-1" points="0.0015 132 123.525 132 123.525 2.682 0.0015 2.682"></polygon>
    </defs>
    <g id="Page-1" stroke="none" stroke-width="1" fill="none" fill-rule="evenodd">
        <g id="Artboard" transform="translate(-37.000000, -36.000000)">
            <g id="Page-1" transform="translate(37.000000, 33.000000)">
                <g id="Group-3" transform="translate(0.000000, 0.319500)">
                    <mask id="mask-2" fill="white">
                        <use xlink:href="#path-1"></use>
                    </mask>
                    <g id="Clip-2"></g>
                    <path d="M118.1385,126.6102 L61.7625,126.6102 L5.3865,126.6102 L5.3865,114.2922 C5.3865,110.2752 7.9545,106.7172 11.7825,105.4122 L12.0855,105.3222 C17.1255,103.9662 19.9065,102.6342 22.1415,101.5632 C23.0085,101.1522 23.7555,100.7952 24.4815,100.5162 C30.5145,98.2152 38.8305,94.5882 41.3595,89.6562 C41.4585,89.4672 41.5275,89.3022 41.5665,89.2122 L42.0165,88.2162 L42.0225,87.0732 L42.0495,83.8452 C48.5355,90.2652 55.9515,94.2822 61.7625,94.2822 C67.5765,94.2822 74.9925,90.2652 81.4785,83.8482 L81.5025,87.0732 L81.5085,88.2162 L81.9585,89.2122 C81.9945,89.2962 82.0665,89.4612 82.1625,89.6502 C84.6975,94.5882 93.0135,98.2152 99.0465,100.5162 C99.7725,100.7952 100.5165,101.1522 101.3835,101.5632 C103.6185,102.6342 106.3995,103.9662 111.4395,105.3222 L111.7425,105.4122 C115.5735,106.7172 118.1385,110.2752 118.1385,114.2922 L118.1385,126.6102 Z M32.5335,53.6472 C43.5315,45.5022 60.3825,34.5702 78.0735,34.5672 C78.8925,34.5672 79.7145,34.5912 80.5395,34.6422 L90.6645,44.8002 C90.9645,46.7802 91.1205,48.8232 91.1205,50.9292 C91.1205,59.8032 87.0825,69.4962 80.0445,77.5182 C76.9485,81.0432 73.4835,83.9922 70.0215,86.0472 C66.9285,87.8832 63.9975,88.8942 61.7625,88.8942 C59.5305,88.8942 56.5965,87.8832 53.5065,86.0472 C50.0415,83.9922 46.5765,81.0432 43.4835,77.5182 C37.1565,70.3062 33.2565,61.7472 32.5335,53.6472 L32.5335,53.6472 Z M24.3195,53.1042 C24.1755,48.8802 24.4665,44.8422 25.1895,41.0412 C26.1105,36.1812 27.7395,31.6782 30.0255,27.6582 C33.8235,20.9802 38.2485,17.7942 38.5545,17.5752 L45.2535,13.2972 L41.4045,10.6002 C46.0785,9.2832 52.0635,8.0682 58.2975,8.0682 C66.6855,8.0682 73.6965,10.2612 79.1295,14.5812 C82.0635,16.9152 84.1275,18.9162 85.6185,20.8752 C87.0375,22.7382 88.0305,24.6912 88.7475,27.0312 C89.5575,29.6802 90.0375,32.8932 90.3765,36.8772 L84.3555,30.8352 L82.9035,29.3832 L80.8545,29.2632 C79.9365,29.2062 79.0005,29.1792 78.0735,29.1792 C72.6945,29.1792 67.0365,30.0942 61.2615,31.8972 C56.4405,33.4002 51.4005,35.5632 46.2825,38.3322 C37.2405,43.2222 29.4975,49.1322 24.3195,53.1042 L24.3195,53.1042 Z M113.3445,100.2672 L112.8885,100.1322 C106.2015,98.3382 103.9395,96.6132 100.9635,95.4822 C90.4035,91.4562 87.6585,88.5582 86.9535,87.1872 C86.9325,87.1422 86.9115,87.0852 86.8875,87.0372 L86.8245,77.6982 C92.4705,70.1412 96.5055,60.7032 96.5055,50.9292 L96.5055,50.6622 L96.5055,50.6652 C96.5055,50.6232 96.5055,50.5842 96.5025,50.5452 C96.4935,49.4052 96.4485,48.2892 96.3615,47.1852 C95.4585,26.3682 94.5615,19.9722 82.4835,10.3662 C75.1905,4.5612 66.4965,2.6802 58.3005,2.6802 L58.2975,2.6802 C43.2105,2.6802 29.7975,9.0462 29.7975,9.0462 L35.5695,13.0902 C35.5695,13.0902 14.4405,27.0462 19.7475,61.9512 C19.7865,62.2122 19.9335,62.3322 20.1735,62.3322 C21.1545,62.3322 23.7615,60.3192 27.5925,57.3852 C28.8945,64.8042 32.3115,71.8182 36.7005,77.6982 L36.6375,87.0372 C36.6135,87.0852 36.5925,87.1422 36.5685,87.1872 C35.8665,88.5582 33.1215,91.4562 22.5615,95.4822 C19.5855,96.6132 17.3265,98.3382 10.6395,100.1322 L10.1805,100.2672 C4.0935,102.2772 0.0015,107.9232 0.0015,114.2922 L0.0015,132.0012 L61.7625,132.0012 L123.5265,132.0012 L123.5265,114.2922 C123.5265,107.9232 119.4315,102.2772 113.3445,100.2672 L113.3445,100.2672 Z" id="Fill-1" fill="#000000" mask="url(#mask-2)"></path>
                </g>
                <path d="M81.2874,57.4929 C83.2194,57.4929 83.2224,54.4929 81.2874,54.4929 C79.3584,54.4929 79.3524,57.4929 81.2874,57.4929" id="Fill-4" fill="#000000"></path>
                <path d="M73.1649,61.0791 C75.0939,61.0791 75.0999,58.0791 73.1649,58.0791 C71.2329,58.0791 71.2299,61.0791 73.1649,61.0791" id="Fill-6" fill="#000000"></path>
                <path d="M79.137,64.1844 C81.069,64.1844 81.072,61.1844 79.137,61.1844 C77.208,61.1844 77.202,64.1844 79.137,64.1844" id="Fill-8" fill="#000000"></path>
                <path d="M49.2717,63.4668 C51.2007,63.4668 51.2067,60.4668 49.2717,60.4668 C47.3397,60.4668 47.3367,63.4668 49.2717,63.4668" id="Fill-10" fill="#000000"></path>
                <path d="M41.6913,58.8435 C43.6233,58.8435 43.6263,55.8435 41.6913,55.8435 C39.7593,55.8435 39.7563,58.8435 41.6913,58.8435" id="Fill-12" fill="#000000"></path>
                <path d="M42.5511,65.5203 C44.4831,65.5203 44.4861,62.5203 42.5511,62.5203 C40.6191,62.5203 40.6161,65.5203 42.5511,65.5203" id="Fill-14" fill="#000000"></path>
            </g>
        </g>
    </g>
</svg>