<?xml version="1.0" encoding="UTF-8"?>
<svg width="124px" height="130px" viewBox="0 0 124 130" version="1.1" xmlns="http://www.w3.org/2000/svg" xmlns:xlink="http://www.w3.org/1999/xlink">
    <!-- Generator: Sketch 43.2 (39069) - http://www.bohemiancoding.com/sketch -->
    <title>Page 1</title>
    <desc>Created with Sketch.</desc>
    <defs>
        <polygon id="path-1" points="123.525 131.9994 123.525 2.682 0.0015 2.682 0.0015 131.9994"></polygon>
    </defs>
    <g id="Page-1" stroke="none" stroke-width="1" fill="none" fill-rule="evenodd">
        <g id="Artboard" transform="translate(-37.000000, -36.000000)">
            <g id="Page-1" transform="translate(37.000000, 33.000000)">
                <g id="Group-3" transform="translate(0.000000, 0.319500)">
                    <mask id="mask-2" fill="white">
                        <use xlink:href="#path-1"></use>
                    </mask>
                    <g id="Clip-2"></g>
                    <path d="M118.1385,126.6114 L61.7625,126.6114 L5.3865,126.6114 L5.3865,114.2934 C5.3865,110.2764 7.9545,106.7154 11.7825,105.4104 L12.0855,105.3234 C17.1255,103.9644 19.9065,102.6354 22.1415,101.5644 C23.0085,101.1504 23.7555,100.7934 24.4815,100.5174 C30.5145,98.2164 38.8305,94.5894 41.3595,89.6574 C41.4585,89.4654 41.5275,89.3034 41.5665,89.2104 L42.0165,88.2144 L42.0225,87.0744 L42.0495,83.8434 C48.5355,90.2634 55.9515,94.2834 61.7625,94.2834 C67.5765,94.2834 74.9925,90.2664 81.4785,83.8494 L81.5025,87.0744 L81.5085,88.2144 L81.9585,89.2104 C81.9945,89.2974 82.0665,89.4624 82.1625,89.6514 C84.6975,94.5894 93.0135,98.2164 99.0465,100.5174 C99.7725,100.7934 100.5165,101.1504 101.3835,101.5644 C103.6185,102.6354 106.3995,103.9644 111.4395,105.3234 L111.7425,105.4104 C115.5735,106.7154 118.1385,110.2764 118.1385,114.2934 L118.1385,126.6114 Z M32.5335,53.6454 C43.5315,45.5034 60.3825,34.5684 78.0735,34.5684 C78.8925,34.5684 79.7145,34.5924 80.5395,34.6434 L90.6645,44.8014 C90.9645,46.7814 91.1205,48.8244 91.1205,50.9304 C91.1205,59.8044 87.0825,69.4944 80.0445,77.5164 C76.9485,81.0444 73.4835,83.9934 70.0215,86.0484 C66.9285,87.8814 63.9975,88.8924 61.7625,88.8924 C59.5305,88.8924 56.5965,87.8814 53.5065,86.0484 C50.0415,83.9934 46.5765,81.0444 43.4835,77.5164 C37.1565,70.3044 33.2565,61.7484 32.5335,53.6454 L32.5335,53.6454 Z M24.3195,53.1024 C24.1755,48.8784 24.4665,44.8404 25.1895,41.0394 C26.1105,36.1824 27.7395,31.6794 30.0255,27.6594 C33.8235,20.9814 38.2485,17.7924 38.5545,17.5764 L45.2535,13.2984 L41.4045,10.6014 C46.0785,9.2814 52.0635,8.0694 58.2975,8.0694 C66.6855,8.0694 73.6965,10.2594 79.1295,14.5794 C82.0635,16.9164 84.1275,18.9174 85.6185,20.8764 C87.0375,22.7364 88.0305,24.6924 88.7475,27.0294 C89.5575,29.6814 90.0375,32.8944 90.3765,36.8784 L84.3555,30.8364 L82.9035,29.3844 L80.8545,29.2614 C79.9365,29.2074 79.0005,29.1804 78.0735,29.1804 C72.6945,29.1804 67.0365,30.0954 61.2615,31.8984 C56.4405,33.4014 51.4005,35.5644 46.2825,38.3304 C37.2405,43.2204 29.4975,49.1334 24.3195,53.1024 L24.3195,53.1024 Z M113.3445,100.2684 L112.8885,100.1334 C106.2015,98.3364 103.9395,96.6114 100.9635,95.4804 C90.4035,91.4574 87.6585,88.5564 86.9535,87.1884 C86.9325,87.1404 86.9115,87.0864 86.8875,87.0384 L86.8245,77.6994 C92.4705,70.1424 96.5055,60.7044 96.5055,50.9304 L96.5055,50.6604 L96.5055,50.6664 C96.5055,50.6244 96.5055,50.5854 96.5025,50.5464 C96.4935,49.4064 96.4485,48.2874 96.3615,47.1864 C95.4585,26.3664 94.5615,19.9734 82.4835,10.3644 C75.1905,4.5594 66.4965,2.6784 58.3005,2.6784 L58.2975,2.6784 C43.2105,2.6784 29.7975,9.0474 29.7975,9.0474 L35.5695,13.0914 C35.5695,13.0914 14.4405,27.0444 19.7475,61.9524 C19.7865,62.2104 19.9335,62.3334 20.1735,62.3334 C21.1545,62.3334 23.7615,60.3204 27.5925,57.3834 C28.8945,64.8054 32.3115,71.8194 36.7005,77.6964 L36.6375,87.0384 C36.6135,87.0864 36.5925,87.1404 36.5685,87.1884 C35.8665,88.5564 33.1215,91.4574 22.5615,95.4804 C19.5855,96.6114 17.3265,98.3364 10.6395,100.1334 L10.1805,100.2684 C4.0935,102.2784 0.0015,107.9214 0.0015,114.2934 L0.0015,131.9994 L61.7625,131.9994 L123.5265,131.9994 L123.5265,114.2934 C123.5265,107.9214 119.4315,102.2784 113.3445,100.2684 L113.3445,100.2684 Z" id="Fill-1" fill="#000000" mask="url(#mask-2)"></path>
                </g>
                <path d="M68.3574,54.7725 C68.3574,56.1015 69.4344,57.1815 70.7634,57.1815 C72.0984,57.1815 73.1724,56.1015 73.1724,54.7725 C73.1724,53.4405 72.0984,52.3635 70.7634,52.3635 C69.4344,52.3635 68.3574,53.4405 68.3574,54.7725" id="Fill-4" fill="#000031"></path>
                <path d="M54.4794,54.7725 C54.4794,56.1015 53.4024,57.1815 52.0734,57.1815 C50.7384,57.1815 49.6644,56.1015 49.6644,54.7725 C49.6644,53.4405 50.7384,52.3635 52.0734,52.3635 C53.4024,52.3635 54.4794,53.4405 54.4794,54.7725" id="Fill-6" fill="#000031"></path>
                <path d="M70.6659,46.8507 C68.1339,46.8447 66.0129,47.6217 64.5339,49.1067 C64.2069,49.4337 64.2099,49.9617 64.5339,50.2887 C64.8579,50.6127 65.3859,50.6127 65.7129,50.2857 C66.8709,49.1217 68.5839,48.5097 70.6599,48.5187 C72.5349,48.5247 74.7369,49.2867 75.5679,50.2137 C75.7449,50.4117 75.9999,50.5047 76.2459,50.4867 C76.4259,50.4747 76.6029,50.4057 76.7469,50.2797 C77.0889,49.9707 77.1159,49.4427 76.8099,49.1007 C75.5109,47.6517 72.6729,46.8537 70.6659,46.8507" id="Fill-8" fill="#000031"></path>
                <path d="M52.1694,46.8507 C54.7014,46.8447 56.8224,47.6217 58.3014,49.1067 C58.6284,49.4337 58.6254,49.9617 58.3014,50.2887 C57.9774,50.6127 57.4494,50.6127 57.1224,50.2857 C55.9644,49.1217 54.2514,48.5097 52.1754,48.5187 C50.3004,48.5247 48.0984,49.2867 47.2674,50.2137 C47.0904,50.4117 46.8354,50.5047 46.5894,50.4867 C46.4094,50.4747 46.2324,50.4057 46.0884,50.2797 C45.7464,49.9707 45.7194,49.4427 46.0254,49.1007 C47.3244,47.6517 50.1624,46.8537 52.1694,46.8507" id="Fill-10" fill="#000031"></path>
                <path d="M39.9423,57.5235 L56.3343,57.5235" id="Stroke-12" stroke="#000000" stroke-width="3"></path>
                <path d="M66.4149,57.6408 L82.8069,57.6408" id="Stroke-14" stroke="#000000" stroke-width="3"></path>
            </g>
        </g>
    </g>
</svg>