<?xml version="1.0" encoding="UTF-8"?>
<svg width="113px" height="130px" viewBox="0 0 113 130" version="1.1" xmlns="http://www.w3.org/2000/svg" xmlns:xlink="http://www.w3.org/1999/xlink">
    <!-- Generator: Sketch 43.2 (39069) - http://www.bohemiancoding.com/sketch -->
    <title>Page 1</title>
    <desc>Created with Sketch.</desc>
    <defs>
        <polygon id="path-1" points="0 131.9994 0 2.682 112.7424 2.682 112.7424 131.9994 4.67460543e-15 131.9994"></polygon>
    </defs>
    <g id="Page-1" stroke="none" stroke-width="1" fill="none" fill-rule="evenodd">
        <g id="Artboard" transform="translate(-43.000000, -36.000000)">
            <g id="Page-1" transform="translate(43.000000, 33.000000)">
                <g id="Group-3" transform="translate(0.000000, 0.317400)">
                    <mask id="mask-2" fill="white">
                        <use xlink:href="#path-1"></use>
                    </mask>
                    <g id="Clip-2"></g>
                    <path d="M94.7844,97.8084 C94.2414,97.7934 93.7104,97.7574 93.1884,97.7124 C92.0784,98.9514 90.8244,100.0824 89.3364,100.9734 C89.7354,101.1534 90.1554,101.3544 90.6024,101.5674 C92.8374,102.6354 95.6184,103.9674 100.6584,105.3264 L100.9614,105.4104 C104.7924,106.7184 107.3574,110.2764 107.3574,114.2904 L107.3574,126.6144 L5.3874,126.6144 L5.3874,114.2904 C5.3874,110.2764 7.9524,106.7184 11.7834,105.4104 L12.0834,105.3264 C17.1234,103.9674 19.9074,102.6354 22.1394,101.5674 C23.0034,101.1534 23.7534,100.7934 24.4794,100.5174 C30.5094,98.2224 38.8164,94.5954 41.3574,89.6604 C41.4534,89.4684 41.5254,89.3064 41.5644,89.2164 L41.9364,88.3944 C46.6824,91.9104 51.5454,94.0254 55.6854,94.2414 C55.0344,92.4594 54.6204,90.5844 54.4554,88.6764 C52.5684,88.2924 50.3874,87.3984 48.1104,86.0514 C44.6514,83.9964 41.1864,81.0474 38.0934,77.5224 C31.0494,69.4974 27.0174,59.8104 27.0174,50.9334 C27.0174,50.1114 27.0414,49.2924 27.0894,48.4854 L85.6554,48.4854 C85.7034,49.2924 85.7244,50.1114 85.7244,50.9334 C85.7244,52.1214 85.6314,53.3274 85.4844,54.5364 C87.3774,55.1694 89.0484,56.0724 90.5034,57.1884 C90.8604,55.1244 91.1124,53.0454 91.1124,50.9334 C91.1124,49.1694 91.0194,47.4534 90.8244,45.7884 C90.8244,44.3004 89.6214,43.0944 88.1334,43.0944 L86.2134,43.0944 L86.2134,40.4004 C86.2134,38.9124 85.0044,37.7064 83.5164,37.7064 C82.0284,37.7064 80.8194,38.9124 80.8194,40.4004 L80.8194,43.0944 L75.4344,43.0944 L75.4344,40.4004 C75.4344,38.9124 74.2254,37.7064 72.7374,37.7064 C71.2494,37.7064 70.0464,38.9124 70.0464,40.4004 L70.0464,43.0944 L64.6554,43.0944 L64.6554,40.4004 C64.6554,38.9124 63.4524,37.7064 61.9644,37.7064 C60.4764,37.7064 59.2704,38.9124 59.2704,40.4004 L59.2704,43.0944 L53.8824,43.0944 L53.8824,40.4004 C53.8824,38.9124 52.6734,37.7064 51.1854,37.7064 C49.6974,37.7064 48.4914,38.9124 48.4914,40.4004 L48.4914,43.0944 L43.1034,43.0944 L43.1034,40.4004 C43.1034,38.9124 41.8974,37.7064 40.4094,37.7064 C38.9184,37.7064 37.7184,38.9124 37.7184,40.4004 L37.7184,43.0944 L32.3274,43.0944 L32.3274,40.4004 C32.3274,38.9124 31.1214,37.7064 29.6334,37.7064 C28.1454,37.7064 26.9394,38.9124 26.9394,40.4004 L26.9394,43.0944 L24.6114,43.0944 C23.1234,43.0944 21.9174,44.3004 21.9084,45.7884 C21.8484,46.3374 21.6264,50.3664 21.6264,50.9334 C21.6264,63.5874 28.3884,75.6714 36.6594,83.8524 L36.6354,87.0414 C36.6114,87.0924 36.5934,87.1434 36.5694,87.1914 C35.8644,88.5594 33.1194,91.4634 22.5624,95.4834 C21.5664,95.8614 20.6514,96.3084 19.6254,96.7974 C18.6984,91.2054 17.3244,81.1794 17.0934,69.7914 C16.8864,59.6994 17.6124,50.5884 19.2474,42.7104 C21.2214,33.2124 24.5124,25.5654 29.0304,19.9734 C32.0664,16.2174 35.7324,13.3194 39.9264,11.3634 C44.6094,9.1794 50.1444,8.0724 56.3724,8.0724 C62.5974,8.0724 68.1234,9.1794 72.8094,11.3604 C77.0004,13.3164 80.6664,16.2084 83.7024,19.9644 C88.2084,25.5324 91.4964,33.1494 93.4704,42.6084 C94.4994,47.5344 95.1414,52.9824 95.4474,58.8234 C97.4274,58.8384 99.2424,59.1144 100.9074,59.5764 C99.6774,32.5104 90.5784,2.6814 56.3724,2.6814 C0.9714,2.6814 11.3934,80.9334 14.5224,98.9454 C13.4124,99.3354 12.1344,99.7344 10.6374,100.1334 L10.1784,100.2684 C4.0944,102.2784 -0.0006,107.9214 -0.0006,114.2904 L-0.0006,131.9994 L112.7424,131.9994 L112.7424,114.2904 C112.7424,108.9024 109.8144,104.0334 105.2244,101.4444" id="Fill-1" fill="#000000" mask="url(#mask-2)"></path>
                </g>
                <path d="M100.5633,81.9099 C100.5633,94.5549 90.3123,104.8029 77.6703,104.8029 C65.0253,104.8029 54.7743,94.5549 54.7743,81.9099 C54.7743,69.2649 65.0253,59.0139 77.6703,59.0139 C90.3123,59.0139 100.5633,69.2649 100.5633,81.9099 Z" id="Stroke-4" stroke="#000000" stroke-width="5.946"></path>
                <path d="M60.3606,67.4169 L92.7396,99.7989" id="Stroke-6" stroke="#000000" stroke-width="5.946"></path>
                <path d="M63.7194,85.5603 C63.7194,85.5603 65.7054,76.5993 74.7594,78.7353 C83.8104,80.8713 85.9464,71.8173 85.9464,71.8173" id="Stroke-8" stroke="#000000" stroke-width="3.216"></path>
                <path d="M70.3377,92.1786 C70.3377,92.1786 72.3237,83.2206 81.3777,85.3536 C90.4287,87.4896 92.5647,78.4356 92.5647,78.4356" id="Stroke-10" stroke="#000000" stroke-width="3.216"></path>
            </g>
        </g>
    </g>
</svg>