<?xml version="1.0" encoding="UTF-8"?>
<svg width="155px" height="155px" viewBox="0 0 155 155" version="1.1" xmlns="http://www.w3.org/2000/svg" xmlns:xlink="http://www.w3.org/1999/xlink">
    <!-- Generator: Sketch 43.2 (39069) - http://www.bohemiancoding.com/sketch -->
    <title>Page 1</title>
    <desc>Created with Sketch.</desc>
    <defs></defs>
    <g id="Page-1" stroke="none" stroke-width="1" fill="none" fill-rule="evenodd">
        <g id="Artboard" transform="translate(-22.000000, -22.000000)">
            <g id="Page-1" transform="translate(22.000000, 22.000000)">
                <polygon id="Stroke-1" stroke="#000000" stroke-width="3" points="1.5 153.063 153.063 153.063 153.063 1.5 1.5 1.5"></polygon>
                <path d="M130.1529,70.7148 C130.1529,100.3398 106.1379,124.3518 76.5159,124.3518 C46.8939,124.3518 22.8789,100.3398 22.8789,70.7148 C22.8789,41.0928 46.8939,17.0808 76.5159,17.0808 C106.1379,17.0808 130.1529,41.0928 130.1529,70.7148" id="Fill-3" fill="#F9B65D"></path>
                <path d="M26.9502,93.3246 C28.9662,109.1346 37.7742,123.8556 48.2622,134.2356 L48.2262,138.8586 C48.1932,138.9276 48.1692,139.0056 48.1362,139.0776 C47.1192,141.0606 43.1412,145.2546 27.8592,151.0776 C26.4192,151.6236 25.0992,152.2656 23.6142,152.9766 C22.2732,144.8856 20.2842,130.3746 19.9482,113.8926 C19.8162,107.3616 19.9542,101.1156 20.3532,95.1876 C22.4442,94.7166 24.6492,94.0956 26.9502,93.3246 L26.9502,93.3246 Z M23.0742,74.7006 C25.9242,60.9546 30.6852,49.8846 37.2252,41.7906 C41.6172,36.3576 46.9242,32.1636 52.9962,29.3316 C59.7732,26.1696 67.7832,24.5706 76.7952,24.5706 C85.7982,24.5706 93.8052,26.1696 100.5762,29.3286 C102.4872,30.2166 104.3202,31.2396 106.0722,32.3916 C101.5092,36.3096 88.5942,47.1786 73.1862,58.2546 C51.8352,73.5996 34.0272,83.3976 21.1122,86.9586 C21.6102,82.6746 22.2612,78.5826 23.0742,74.7006 L23.0742,74.7006 Z M116.3472,41.7786 C122.8722,49.8396 127.6302,60.8676 130.4832,74.5506 C130.6542,75.3726 130.8222,76.2096 130.9752,77.0496 L94.3752,52.0596 C103.4682,44.9076 110.1402,39.1896 112.2702,37.3446 C113.7012,38.7156 115.0632,40.1946 116.3472,41.7786 L116.3472,41.7786 Z M133.6422,113.6136 C133.3242,130.1676 131.3172,144.8226 129.9702,152.9736 C128.4852,152.2656 127.1592,151.6236 125.7252,151.0776 C110.4492,145.2546 106.4712,141.0606 105.4542,139.0776 C105.4212,139.0056 105.3882,138.9276 105.3522,138.8586 L105.3252,134.2416 C117.2892,122.4006 127.0752,104.9106 127.0752,86.6016 C127.0752,85.6536 127.0572,84.7176 127.0152,83.7846 L132.5412,87.5616 C133.4532,95.6076 133.8192,104.3226 133.6422,113.6136 L133.6422,113.6136 Z M88.7442,137.4246 C84.2652,140.0796 80.0262,141.5406 76.7952,141.5406 C73.5642,141.5406 69.3132,140.0796 64.8462,137.4246 C59.8302,134.4486 54.8172,130.1826 50.3382,125.0766 C41.1552,114.6156 35.5062,102.1866 34.4832,90.4296 C46.5702,85.2306 61.0542,76.5846 77.7942,64.5456 C81.3072,62.0196 84.6942,59.5026 87.8862,57.0726 L118.6662,78.0846 C119.0682,80.8386 119.2782,83.6796 119.2782,86.6016 C119.2782,99.4446 113.4342,113.4696 103.2522,125.0766 C98.7732,130.1826 93.7602,134.4486 88.7442,137.4246 L88.7442,137.4246 Z M41.5302,153.6576 C47.3922,150.7056 52.8072,147.0366 55.0632,142.6476 C55.2042,142.3746 55.3092,142.1376 55.3662,142.0056 L55.9002,140.8176 C63.1452,146.1846 70.5972,149.3376 76.7952,149.3376 C82.9872,149.3376 90.4392,146.1846 97.6902,140.8176 L98.2242,142.0056 C98.2692,142.1286 98.3742,142.3656 98.5152,142.6356 C100.7712,147.0276 106.1862,150.7026 112.0542,153.6576 L137.7582,153.6576 C142.6602,123.7056 154.7052,16.7676 76.7952,16.7676 C-1.1268,16.7676 10.9212,123.7056 15.8232,153.6576 L41.5302,153.6576 Z" id="Fill-4" fill="#000000"></path>
            </g>
        </g>
    </g>
</svg>