<?xml version="1.0" encoding="UTF-8"?>
<svg width="155px" height="155px" viewBox="0 0 155 155" version="1.1" xmlns="http://www.w3.org/2000/svg" xmlns:xlink="http://www.w3.org/1999/xlink">
    <!-- Generator: Sketch 43.2 (39069) - http://www.bohemiancoding.com/sketch -->
    <title>Page 1</title>
    <desc>Created with Sketch.</desc>
    <defs></defs>
    <g id="Page-1" stroke="none" stroke-width="1" fill="none" fill-rule="evenodd">
        <g id="Artboard" transform="translate(-22.000000, -22.000000)">
            <g id="Page-1" transform="translate(22.000000, 22.000000)">
                <polygon id="Stroke-1" stroke="#000000" stroke-width="3" points="1.5 153.063 153.063 153.063 153.063 1.5 1.5 1.5"></polygon>
                <path d="M72.2778,110.6097 C73.7178,121.8897 79.9998,132.3927 87.4818,139.7997 L87.4608,143.0967 C87.4368,143.1477 87.4188,143.2047 87.3948,143.2527 C86.6688,144.6687 83.8338,147.6627 72.9288,151.8177 C71.8998,152.2047 70.9608,152.6637 69.8988,153.1737 C68.9418,147.3987 67.5228,137.0457 67.2828,125.2857 C67.1898,120.6237 67.2888,116.1687 67.5738,111.9357 C69.0648,111.6027 70.6368,111.1587 72.2778,110.6097 L72.2778,110.6097 Z M69.5118,97.3197 C71.5458,87.5127 74.9448,79.6137 79.6098,73.8387 C82.7448,69.9627 86.5308,66.9717 90.8628,64.9497 C95.7018,62.6937 101.4138,61.5507 107.8428,61.5507 C114.2658,61.5507 119.9808,62.6937 124.8138,64.9467 C126.1758,65.5797 127.4808,66.3087 128.7318,67.1337 C125.4768,69.9267 116.2638,77.6817 105.2688,85.5837 C90.0348,96.5367 77.3298,103.5267 68.1138,106.0677 C68.4678,103.0107 68.9328,100.0917 69.5118,97.3197 L69.5118,97.3197 Z M136.0668,73.8297 C140.7198,79.5807 144.1128,87.4497 146.1528,97.2147 C146.2758,97.7997 146.3928,98.3967 146.5008,98.9967 L120.3888,81.1647 C126.8748,76.0617 131.6358,71.9847 133.1568,70.6677 C134.1798,71.6457 135.1488,72.6987 136.0668,73.8297 L136.0668,73.8297 Z M148.4058,125.0877 C148.1778,136.8957 146.7468,147.3537 145.7868,153.1707 C144.7248,152.6637 143.7798,152.2047 142.7568,151.8177 C131.8548,147.6627 129.0198,144.6687 128.2938,143.2527 C128.2698,143.2047 128.2458,143.1477 128.2188,143.0967 L128.2008,139.8027 C136.7358,131.3577 143.7168,118.8747 143.7168,105.8127 C143.7168,105.1347 143.7078,104.4687 143.6778,103.8027 L147.6198,106.4967 C148.2708,112.2357 148.5318,118.4547 148.4058,125.0877 L148.4058,125.0877 Z M116.3688,142.0737 C113.1738,143.9697 110.1498,145.0137 107.8428,145.0137 C105.5388,145.0137 102.5058,143.9697 99.3198,142.0737 C95.7408,139.9527 92.1618,136.9077 88.9668,133.2657 C82.4148,125.7987 78.3828,116.9307 77.6538,108.5427 C86.2788,104.8347 96.6108,98.6637 108.5568,90.0747 C111.0648,88.2717 113.4798,86.4777 115.7568,84.7437 L137.7198,99.7347 C138.0048,101.6997 138.1578,103.7277 138.1578,105.8127 C138.1578,114.9747 133.9848,124.9827 126.7188,133.2657 C123.5268,136.9077 119.9478,139.9527 116.3688,142.0737 L116.3688,142.0737 Z M82.6848,153.6567 C86.8638,151.5507 90.7278,148.9317 92.3388,145.7997 C92.4408,145.6077 92.5128,145.4367 92.5548,145.3437 L92.9388,144.4947 C98.1018,148.3257 103.4238,150.5757 107.8428,150.5757 C112.2618,150.5757 117.5808,148.3257 122.7498,144.4947 L123.1338,145.3437 C123.1668,145.4307 123.2388,145.5987 123.3408,145.7937 C124.9518,148.9287 128.8158,151.5477 133.0008,153.6567 L151.3398,153.6567 C154.8408,132.2877 163.4358,55.9857 107.8428,55.9857 C52.2438,55.9857 60.8388,132.2877 64.3398,153.6567 L82.6848,153.6567 Z" id="Fill-3" fill="#000000"></path>
                <path d="M56.3958,47.0283 C56.3958,55.3833 49.9368,62.1573 41.9688,62.1573 C34.0008,62.1573 27.5418,55.3833 27.5418,47.0283 C27.5418,38.6733 34.0008,31.9023 41.9688,31.9023 C49.9368,31.9023 56.3958,38.6733 56.3958,47.0283" id="Fill-4" fill="#F9B65D"></path>
                <path d="M50.4984,43.7895 C50.4984,51.2715 44.4324,57.3375 36.9474,57.3375 C29.4684,57.3375 23.4024,51.2715 23.4024,43.7895 C23.4024,36.3075 29.4684,30.2415 36.9474,30.2415 C44.4324,30.2415 50.4984,36.3075 50.4984,43.7895 Z" id="Stroke-5" stroke="#000000" stroke-width="2.226"></path>
                <path d="M36.9486,24.159 L36.9486,14.139" id="Stroke-6" stroke="#000000" stroke-width="2.226"></path>
                <path d="M36.9486,72.8331 L36.9486,62.8131" id="Stroke-7" stroke="#000000" stroke-width="2.226"></path>
                <path d="M54.7671,44.9964 L64.7871,44.9964" id="Stroke-8" stroke="#000000" stroke-width="2.226"></path>
                <path d="M9.1137,44.9964 L19.1337,44.9964" id="Stroke-9" stroke="#000000" stroke-width="2.226"></path>
                <path d="M49.5462,57.5943 L56.6322,64.6803" id="Stroke-10" stroke="#000000" stroke-width="2.226"></path>
                <path d="M17.2671,25.3119 L24.3531,32.3979" id="Stroke-11" stroke="#000000" stroke-width="2.226"></path>
                <path d="M24.354,57.5943 L17.268,64.6803" id="Stroke-12" stroke="#000000" stroke-width="2.226"></path>
                <path d="M56.6331,25.3119 L49.5471,32.3979" id="Stroke-13" stroke="#000000" stroke-width="2.226"></path>
            </g>
        </g>
    </g>
</svg>