<?xml version="1.0" encoding="UTF-8"?>
<svg width="118px" height="132px" viewBox="0 0 118 132" version="1.1" xmlns="http://www.w3.org/2000/svg" xmlns:xlink="http://www.w3.org/1999/xlink">
    <!-- Generator: Sketch 43.2 (39069) - http://www.bohemiancoding.com/sketch -->
    <title>Page 1</title>
    <desc>Created with Sketch.</desc>
    <defs>
        <polygon id="path-1" points="0.000452211763 124 101.119148 124 101.119148 0.783448175 0.000452211763 0.783448175"></polygon>
        <polygon id="path-3" points="87.19 0.690589115 87.19 110.263575 1.22761056 110.263575 1.22761056 0.690589115 87.19 0.690589115"></polygon>
    </defs>
    <g id="Page-1" stroke="none" stroke-width="1" fill="none" fill-rule="evenodd">
        <g id="Artboard" transform="translate(-46.000000, -36.000000)">
            <g id="Page-1" transform="translate(46.000000, 34.000000)">
                <g id="Group-3" transform="translate(0.000000, 9.310000)">
                    <mask id="mask-2" fill="white">
                        <use xlink:href="#path-1"></use>
                    </mask>
                    <g id="Clip-2"></g>
                    <path d="M18.0548,119.3082 L96.4288,109.2122 L83.0648,5.4742 L4.6908,15.5702 L18.0548,119.3082 Z M99.1888,113.3202 L16.4248,123.9822 C15.2128,124.1382 14.1028,123.2822 13.9468,122.0682 L0.0188,13.9402 C-0.1372,12.7282 0.7188,11.6182 1.9308,11.4622 L84.6948,0.8022 C85.9068,0.6442 87.0168,1.5022 87.1728,2.7142 L101.1008,110.8422 C101.2568,112.0562 100.4008,113.1642 99.1888,113.3202 L99.1888,113.3202 Z" id="Fill-1" fill="#333140" mask="url(#mask-2)"></path>
                </g>
                <g id="Group-6" transform="translate(30.000000, 1.310000)">
                    <mask id="mask-4" fill="white">
                        <use xlink:href="#path-3"></use>
                    </mask>
                    <g id="Clip-5"></g>
                    <path d="M68.4834,110.2456 C67.3914,110.3856 66.3414,109.6956 66.0614,108.6016 C65.7554,107.4156 66.4694,106.2096 67.6534,105.9076 L82.2834,102.1476 L57.4834,5.6096 L4.0054,19.6976 C2.8514,20.0076 1.6134,19.3036 1.3014,18.1196 C0.9894,16.9396 1.6954,15.7276 2.8794,15.4156 L58.5114,0.7616 C59.0814,0.6156 59.6874,0.6956 60.1934,0.9936 C60.7014,1.2916 61.0694,1.7796 61.2174,2.3516 L87.1214,103.1916 C87.2674,103.7596 87.1814,104.3636 86.8834,104.8696 C86.5834,105.3736 86.0974,105.7396 85.5274,105.8856 L68.7554,110.1936 C68.6634,110.2176 68.5734,110.2356 68.4834,110.2456" id="Fill-4" fill="#333140" mask="url(#mask-4)"></path>
                </g>
                <polygon id="Fill-7" fill="#F9B65D" points="7.5586 28.2382 80.2586 19.2522 92.9206 116.6622"></polygon>
                <path d="M48.8282,49.7802 C47.6162,49.9362 46.5062,49.0802 46.3502,47.8662 L44.3542,32.3782 C44.2002,31.1642 45.0542,30.0562 46.2682,29.9002 C47.4802,29.7422 48.5902,30.6002 48.7462,31.8122 L50.7422,47.3022 C50.8982,48.5142 50.0402,49.6242 48.8282,49.7802" id="Fill-9" fill="#333140"></path>
                <path d="M55.5762,41.037 L40.0862,43.033 C38.8742,43.189 37.7642,42.331 37.6102,41.121 C37.4522,39.909 38.3082,38.797 39.5222,38.641 L55.0102,36.647 C56.2242,36.491 57.3322,37.347 57.4902,38.559 C57.6462,39.771 56.7882,40.881 55.5762,41.037" id="Fill-11" fill="#333140"></path>
                <path d="M78.4054,60.1982 L20.7074,67.6302 C19.4954,67.7862 18.3854,66.9302 18.2294,65.7182 C18.0734,64.5062 18.9294,63.3962 20.1434,63.2402 L77.8394,55.8082 C79.0514,55.6522 80.1614,56.5082 80.3174,57.7202 C80.4734,58.9322 79.6174,60.0422 78.4054,60.1982" id="Fill-13" fill="#333140"></path>
                <path d="M79.6924,70.1884 L21.9944,77.6204 C20.7824,77.7764 19.6724,76.9204 19.5164,75.7084 C19.3604,74.4944 20.2164,73.3864 21.4284,73.2304 L79.1264,65.7984 C80.3384,65.6424 81.4484,66.4984 81.6044,67.7104 C81.7604,68.9224 80.9044,70.0324 79.6924,70.1884" id="Fill-15" fill="#333140"></path>
                <path d="M82.3536,91.7862 L24.6556,99.2182 C23.4436,99.3742 22.3356,98.5182 22.1796,97.3062 C22.0216,96.0942 22.8796,94.9842 24.0916,94.8282 L81.7876,87.3962 C83.0016,87.2402 84.1096,88.0962 84.2676,89.3082 C84.4236,90.5202 83.5656,91.6302 82.3536,91.7862" id="Fill-17" fill="#333140"></path>
                <path d="M83.6406,101.7764 L25.9426,109.2084 C24.7306,109.3644 23.6206,108.5084 23.4646,107.2964 C23.3086,106.0824 24.1646,104.9744 25.3786,104.8184 L83.0746,97.3864 C84.2866,97.2304 85.3966,98.0864 85.5526,99.2984 C85.7086,100.5104 84.8526,101.6204 83.6406,101.7764" id="Fill-19" fill="#333140"></path>
            </g>
        </g>
    </g>
</svg>