<?xml version="1.0" encoding="UTF-8"?>
<svg width="133px" height="117px" viewBox="0 0 133 117" version="1.1" xmlns="http://www.w3.org/2000/svg" xmlns:xlink="http://www.w3.org/1999/xlink">
    <!-- Generator: Sketch 43.2 (39069) - http://www.bohemiancoding.com/sketch -->
    <title>Page 1</title>
    <desc>Created with Sketch.</desc>
    <defs>
        <polygon id="path-1" points="1.4046 118 102.746 118 102.746 1.7644 1.4046 1.7644 1.4046 118"></polygon>
    </defs>
    <g id="Page-1" stroke="none" stroke-width="1" fill="none" fill-rule="evenodd">
        <g id="Artboard" transform="translate(-30.000000, -44.000000)">
            <g id="Page-1" transform="translate(30.000000, 42.000000)">
                <path d="M6.2982,46.6766 L6.2982,54.4586 L3.8362,54.4586 L3.8362,64.0126 L1.8302,64.0126 L1.8302,67.9426 L0.9202,67.9426 L0.9202,116.4846 L22.8942,116.4846 L22.8942,67.9426 L21.9822,67.9426 L21.9822,64.0126 L19.9762,64.0126 L19.9762,54.4586 L17.5142,54.4586 L17.5142,49.7586 L20.9782,49.7586 L20.9782,47.7546 L17.5142,47.7546 L17.5142,46.6766 L6.2982,46.6766 Z M1.6482,115.9446 L22.2542,115.9446 L22.2542,68.5586 L1.6482,68.5586 L1.6482,115.9446 Z" id="Fill-1" fill="#333140"></path>
                <path d="M1.65,115.9456 L22.256,115.9456 L22.256,68.5596 L1.65,68.5596 L1.65,115.9456 Z M21.982,67.9436 L21.982,64.0136 L19.976,64.0136 L19.976,54.4576 L17.514,54.4576 L17.514,49.7576 L20.978,49.7576 L20.978,47.7556 L17.514,47.7556 L17.514,46.6756 L6.298,46.6756 L6.298,54.4576 L3.836,54.4576 L3.836,64.0136 L1.83,64.0136 L1.83,67.9436 L0.92,67.9436 L0.92,116.4856 L22.894,116.4856 L22.894,67.9436 L21.982,67.9436 Z" id="Stroke-2" stroke="#333140" stroke-width="1.838"></path>
                <polygon id="Fill-4" fill="#333140" points="14.3898 104.7378 14.3898 107.3238 10.3298 107.3238 10.3298 104.7798 11.1438 104.7798 11.1438 106.2898 11.8878 106.2898 11.8878 104.8498 12.7058 104.8498 12.7058 106.2898 13.5718 106.2898 13.5718 104.7378"></polygon>
                <polygon id="Fill-5" fill="#333140" points="14.3898 100.4234 14.3898 103.0314 10.3298 103.0314 10.3298 101.9954 13.4178 101.9954 13.4178 100.4234"></polygon>
                <polygon id="Fill-6" fill="#333140" points="14.3898 96.2006 14.3898 98.8086 10.3298 98.8086 10.3298 97.7726 13.4178 97.7726 13.4178 96.2006"></polygon>
                <path d="M12.8606,92.4664 L11.3786,92.9684 L12.8606,93.4764 L12.8606,92.4664 Z M14.3906,90.8884 L14.3906,91.9484 L13.5666,92.2284 L13.5666,93.7184 L14.3906,94.0044 L14.3906,95.0644 L10.3286,93.5464 L10.3286,92.4024 L14.3906,90.8884 Z" id="Fill-7" fill="#333140"></path>
                <polygon id="Fill-8" fill="#333140" points="14.3898 85.4272 14.3898 86.4632 12.0378 86.4632 13.3998 87.3952 13.3998 87.4772 12.0378 88.4132 14.3898 88.4132 14.3898 89.4192 10.3298 89.4192 10.3298 88.4792 11.8518 87.4252 10.3298 86.3652 10.3298 85.4272"></polygon>
                <g id="Group-20" transform="translate(10.000000, 0.235600)">
                    <path d="M2.38,80.8362 C2.05,80.8362 1.792,80.8882 1.608,80.9962 C1.422,81.1022 1.3,81.2302 1.238,81.3782 C1.174,81.5282 1.144,81.6802 1.144,81.8362 L1.144,82.2762 L3.548,82.2762 L3.548,81.8362 C3.548,81.5662 3.472,81.3322 3.32,81.1322 C3.168,80.9342 2.854,80.8362 2.38,80.8362 M2.432,79.7842 C2.848,79.7842 3.182,79.8482 3.434,79.9762 C3.686,80.1042 3.89,80.2542 4.046,80.4262 C4.276,80.6722 4.39,81.0182 4.39,81.4602 L4.39,83.3122 L0.33,83.3122 L0.33,81.8862 C0.33,81.6702 0.342,81.4882 0.368,81.3362 C0.396,81.1822 0.432,81.0442 0.48,80.9222 C0.528,80.8002 0.582,80.6962 0.642,80.6102 C0.702,80.5242 0.764,80.4482 0.834,80.3802 C0.946,80.2622 1.08,80.1602 1.234,80.0722 C1.388,79.9842 1.568,79.9142 1.77,79.8622 C1.974,79.8102 2.194,79.7842 2.432,79.7842" id="Fill-9" fill="#333140"></path>
                    <path d="M55.6466,69.0306 C49.9426,62.5326 46.4346,54.8126 45.7986,47.5106 C53.3066,44.2826 62.3006,38.9126 72.6986,31.4366 C74.8806,29.8666 76.9826,28.3046 78.9666,26.7946 L98.0826,39.8466 C98.3306,41.5566 98.4626,43.3206 98.4626,45.1346 C98.4626,53.1106 94.8326,61.8206 88.5086,69.0306 C85.7266,72.1986 82.6126,74.8526 79.4986,76.6966 C76.7166,78.3466 74.0846,79.2546 72.0766,79.2546 C70.0686,79.2546 67.4306,78.3466 64.6566,76.6966 C61.5426,74.8526 58.4286,72.1986 55.6466,69.0306" id="Fill-11" fill="#F9B65D"></path>
                    <path d="M56.1574,48.6204 C58.9994,52.3324 64.3034,53.0364 68.0154,50.1944" id="Stroke-13" stroke="#333140" stroke-width="2"></path>
                    <path d="M87.3576,48.6204 C84.5156,52.3324 79.2116,53.0364 75.4996,50.1944" id="Stroke-15" stroke="#333140" stroke-width="2"></path>
                    <g id="Group-19" transform="translate(20.000000, 0.000000)">
                        <mask id="mask-2" fill="white">
                            <use xlink:href="#path-1"></use>
                        </mask>
                        <g id="Clip-18"></g>
                        <path d="M97.9006,113.1564 L52.0766,113.1564 L6.2466,113.1564 L6.2466,102.0824 C6.2466,98.4724 8.5566,95.2744 12.0006,94.1024 L12.2706,94.0224 C16.7966,92.8044 19.2966,91.6064 21.3086,90.6444 C22.0866,90.2724 22.7566,89.9504 23.4086,89.7024 C28.8286,87.6364 36.2986,84.3784 38.5806,79.9424 C38.6686,79.7724 38.7326,79.6244 38.7686,79.5424 L39.1026,78.8044 C43.6006,82.1384 48.2286,84.0964 52.0766,84.0964 C55.9226,84.0964 60.5526,82.1384 65.0526,78.8044 L65.3866,79.5424 C65.4146,79.6184 65.4786,79.7664 65.5666,79.9344 C67.8446,84.3744 75.3186,87.6364 80.7466,89.7044 C81.3966,89.9504 82.0666,90.2724 82.8426,90.6444 C84.8546,91.6064 87.3506,92.8044 91.8846,94.0224 L92.1526,94.1004 C95.5946,95.2744 97.9006,98.4724 97.9006,102.0824 L97.9006,113.1564 Z M16.7726,62.0824 C16.6906,58.0284 16.7746,54.1484 17.0246,50.4664 C18.3206,50.1744 19.6926,49.7884 21.1206,49.3104 C22.3726,59.1284 27.8426,68.2724 34.3566,74.7184 L34.3346,77.5884 C34.3126,77.6324 34.2986,77.6804 34.2766,77.7244 C33.6466,78.9544 31.1766,81.5604 21.6846,85.1784 C20.7906,85.5164 19.9706,85.9144 19.0486,86.3564 C18.2146,81.3324 16.9806,72.3204 16.7726,62.0824 L16.7726,62.0824 Z M27.5026,17.3044 C30.2306,13.9304 33.5246,11.3244 37.2966,9.5664 C41.5066,7.6024 46.4806,6.6084 52.0766,6.6084 C57.6686,6.6084 62.6406,7.6024 66.8486,9.5644 C68.0326,10.1164 69.1726,10.7504 70.2606,11.4684 C67.4266,13.9004 59.4066,20.6504 49.8346,27.5284 C36.5766,37.0584 25.5166,43.1444 17.4946,45.3564 C17.8046,42.6964 18.2086,40.1544 18.7126,37.7424 C20.4826,29.2044 23.4406,22.3304 27.5026,17.3044 L27.5026,17.3044 Z M85.4206,37.6504 C85.5266,38.1604 85.6306,38.6804 85.7266,39.2004 L62.9966,23.6804 C68.6426,19.2404 72.7866,15.6884 74.1086,14.5424 C74.9986,15.3944 75.8446,16.3124 76.6426,17.2964 C80.6926,22.3024 83.6486,29.1504 85.4206,37.6504 L85.4206,37.6504 Z M35.6466,69.0304 C29.9426,62.5324 26.4346,54.8124 25.7986,47.5104 C33.3066,44.2824 42.3006,38.9124 52.6986,31.4364 C54.8806,29.8664 56.9846,28.3044 58.9666,26.7944 L78.0826,39.8464 C78.3306,41.5564 78.4626,43.3204 78.4626,45.1344 C78.4626,53.1104 74.8326,61.8204 68.5086,69.0304 C65.7266,72.1984 62.6126,74.8524 59.4986,76.6984 C56.7166,78.3464 54.0846,79.2544 52.0766,79.2544 C50.0686,79.2544 47.4306,78.3464 44.6566,76.6984 C41.5426,74.8524 38.4286,72.1984 35.6466,69.0304 L35.6466,69.0304 Z M82.4666,85.1784 C72.9786,81.5604 70.5086,78.9544 69.8766,77.7244 C69.8566,77.6804 69.8346,77.6324 69.8146,77.5884 L69.7966,74.7224 C77.2266,67.3684 83.3046,56.5044 83.3046,45.1344 C83.3046,44.5444 83.2926,43.9644 83.2686,43.3864 L86.6986,45.7304 C87.2666,50.7264 87.4926,56.1404 87.3826,61.9104 C87.1846,72.1924 85.9406,81.2924 85.1026,86.3544 C84.1806,85.9144 83.3566,85.5164 82.4666,85.1784 L82.4666,85.1784 Z M93.5946,89.4764 L93.1826,89.3584 C91.8346,88.9964 90.6866,88.6384 89.6846,88.2864 C92.5006,72.0944 101.8666,1.7644 52.0766,1.7644 C2.2806,1.7644 11.6466,72.0944 14.4626,88.2864 C13.4626,88.6384 12.3166,88.9964 10.9686,89.3584 L10.5546,89.4764 C5.0846,91.2844 1.4046,96.3584 1.4046,102.0824 L1.4046,118.0004 L52.0766,118.0004 L102.7466,118.0004 L102.7466,102.0824 C102.7466,96.3584 99.0646,91.2844 93.5946,89.4764 L93.5946,89.4764 Z" id="Fill-17" fill="#333140" mask="url(#mask-2)"></path>
                    </g>
                </g>
            </g>
        </g>
    </g>
</svg>