<?xml version="1.0" encoding="UTF-8"?>
<svg width="92px" height="132px" viewBox="0 0 92 132" version="1.1" xmlns="http://www.w3.org/2000/svg" xmlns:xlink="http://www.w3.org/1999/xlink">
    <!-- Generator: Sketch 43.2 (39069) - http://www.bohemiancoding.com/sketch -->
    <title>Page 1</title>
    <desc>Created with Sketch.</desc>
    <defs>
        <polygon id="path-1" points="45.6215 132 0 132 0 0.214 45.6215 0.214 91.243 0.214 91.243 132 45.6215 132"></polygon>
    </defs>
    <g id="Page-1" stroke="none" stroke-width="1" fill="none" fill-rule="evenodd">
        <g id="Artboard" transform="translate(-58.000000, -36.000000)">
            <g id="Page-1" transform="translate(58.000000, 34.000000)">
                <path d="M71.197,68.7676 C71.197,84.0136 58.839,96.3716 43.593,96.3716 C28.347,96.3716 15.987,84.0136 15.987,68.7676 C15.987,53.5216 28.347,41.1616 43.593,41.1616 C58.839,41.1616 71.197,53.5216 71.197,68.7676" id="Fill-1" fill="#F9B65D"></path>
                <g id="Group-5" transform="translate(0.000000, 1.785800)">
                    <mask id="mask-2" fill="white">
                        <use xlink:href="#path-1"></use>
                    </mask>
                    <g id="Clip-4"></g>
                    <path d="M48.815,10.098 C48.815,8.342 47.447,7.022 45.621,7.022 C43.797,7.022 42.429,8.342 42.429,10.098 C42.429,11.854 43.797,13.174 45.621,13.174 C47.447,13.392 48.815,11.854 48.815,10.098 L48.815,10.098 Z M70.029,24.814 L21.213,24.814 L21.213,11.196 C21.213,9.878 22.355,9 23.495,9 L34.217,9 C35.585,3.948 40.147,0.214 45.621,0.214 C51.097,0.214 55.657,3.948 57.027,9 L67.519,9 C68.889,9 69.801,10.098 69.801,11.196 L69.801,24.814 L70.029,24.814 Z M91.243,21.96 L91.243,124.532 C91.243,128.706 87.821,132 83.715,132 L7.527,132 C3.423,132 -0.001,128.706 -0.001,124.532 L-0.001,21.96 C-0.001,17.786 3.423,14.49 7.527,14.49 L18.705,14.49 L18.705,19.982 L7.527,19.982 C6.387,19.982 5.475,20.86 5.475,21.96 L5.475,124.532 C5.475,125.63 6.387,126.51 7.527,126.51 L83.715,126.51 C84.857,126.51 85.769,125.63 85.769,124.532 L85.769,21.96 C85.769,20.86 84.857,19.982 83.715,19.982 L72.537,19.982 L72.537,14.49 L83.715,14.49 C87.821,14.492 91.243,17.786 91.243,21.96 L91.243,21.96 Z" id="Fill-3" fill="#333140" mask="url(#mask-2)"></path>
                </g>
                <path d="M67.948,106.4922 L43.914,106.4922 L19.878,106.4922 L19.878,100.6842 C19.878,98.7902 21.088,97.1142 22.896,96.4982 L23.036,96.4562 C25.41,95.8182 26.722,95.1902 27.778,94.6842 C28.184,94.4902 28.536,94.3202 28.878,94.1902 C31.722,93.1082 35.64,91.3982 36.836,89.0722 C36.882,88.9822 36.916,88.9062 36.934,88.8622 L37.11,88.4762 C39.468,90.2242 41.896,91.2502 43.914,91.2502 C45.932,91.2502 48.36,90.2242 50.72,88.4762 L50.896,88.8622 C50.91,88.9022 50.944,88.9802 50.99,89.0682 C52.184,91.3962 56.104,93.1062 58.95,94.1922 C59.29,94.3202 59.644,94.4902 60.05,94.6842 C61.106,95.1902 62.414,95.8182 64.792,96.4562 L64.934,96.4962 C66.74,97.1142 67.948,98.7902 67.948,100.6842 L67.948,106.4922 Z M25.398,79.7042 C25.356,77.5782 25.4,75.5422 25.53,73.6122 C26.21,73.4582 26.928,73.2562 27.678,73.0062 C28.336,78.1562 31.204,82.9502 34.62,86.3322 L34.608,87.8362 C34.598,87.8602 34.59,87.8862 34.578,87.9082 C34.248,88.5542 32.952,89.9202 27.974,91.8182 C27.506,91.9942 27.076,92.2042 26.592,92.4362 C26.156,89.8002 25.508,85.0742 25.398,79.7042 L25.398,79.7042 Z M31.026,56.2202 C32.456,54.4502 34.184,53.0842 36.162,52.1602 C38.37,51.1322 40.98,50.6102 43.914,50.6102 C46.846,50.6102 49.454,51.1322 51.662,52.1602 C52.282,52.4502 52.88,52.7822 53.45,53.1582 C51.964,54.4342 47.758,57.9742 42.74,61.5822 C35.784,66.5802 29.984,69.7722 25.778,70.9322 C25.94,69.5362 26.152,68.2042 26.416,66.9382 C27.344,62.4622 28.896,58.8562 31.026,56.2202 L31.026,56.2202 Z M61.404,66.8902 C61.458,67.1582 61.512,67.4302 61.564,67.7042 L49.642,59.5642 C52.602,57.2342 54.776,55.3722 55.47,54.7722 C55.936,55.2182 56.38,55.7002 56.798,56.2142 C58.922,58.8402 60.472,62.4322 61.404,66.8902 L61.404,66.8902 Z M35.296,83.3482 C32.306,79.9402 30.466,75.8922 30.132,72.0622 C34.07,70.3682 38.786,67.5522 44.24,63.6322 C45.384,62.8082 46.488,61.9902 47.528,61.1982 L57.554,68.0422 C57.684,68.9382 57.752,69.8642 57.752,70.8162 C57.752,74.9982 55.85,79.5682 52.532,83.3482 C51.074,85.0102 49.44,86.4022 47.806,87.3702 C46.348,88.2362 44.968,88.7122 43.914,88.7122 C42.862,88.7122 41.478,88.2362 40.022,87.3702 C38.39,86.4022 36.756,85.0102 35.296,83.3482 L35.296,83.3482 Z M59.854,91.8182 C54.876,89.9202 53.582,88.5542 53.25,87.9082 C53.24,87.8862 53.228,87.8602 53.216,87.8362 L53.208,86.3342 C57.106,82.4762 60.292,76.7802 60.292,70.8162 C60.292,70.5062 60.286,70.2022 60.274,69.8982 L62.072,71.1282 C62.37,73.7482 62.49,76.5882 62.432,79.6162 C62.326,85.0062 61.674,89.7802 61.236,92.4362 C60.752,92.2042 60.32,91.9942 59.854,91.8182 L59.854,91.8182 Z M65.69,94.0722 L65.474,94.0102 C64.766,93.8202 64.164,93.6322 63.64,93.4482 C65.116,84.9562 70.028,48.0702 43.914,48.0702 C17.798,48.0702 22.708,84.9562 24.186,93.4482 C23.662,93.6322 23.062,93.8202 22.354,94.0102 L22.136,94.0722 C19.268,95.0222 17.338,97.6822 17.338,100.6842 L17.338,109.0322 L43.914,109.0322 L70.49,109.0322 L70.49,100.6842 C70.49,97.6822 68.558,95.0222 65.69,94.0722 L65.69,94.0722 Z" id="Fill-6" fill="#333140"></path>
            </g>
        </g>
    </g>
</svg>