<svg width="18px" height="18px" viewBox="0 0 18 18" version="1.1" xmlns="http://www.w3.org/2000/svg" xmlns:xlink="http://www.w3.org/1999/xlink">
  <path d="M9.88624901,10.2888889 C9.17466374,10.2888889 8.6,9.71404636 8.6,9 C8.6,8.28864645 9.17616772,7.71111111 9.88624901,7.71111111 L16.1111111,7.71111111 C16.8229448,7.71111111 17.4,8.28816632 17.4,9 C17.4,13.6391919 13.6391919,17.4 9,17.4 C4.3608081,17.4 0.6,13.6391919 0.6,9 C0.6,4.3608081 4.3608081,0.6 9,0.6 C10.9006871,0.6 12.7224442,1.23529204 14.2038779,2.40571839 C14.7624236,2.84700492 14.857481,3.65752915 14.4161945,4.21607492 C13.974908,4.7746207 13.1643838,4.86967811 12.605838,4.42839158 C11.578544,3.61676432 10.3194043,3.17777778 9,3.17777778 C5.78447546,3.17777778 3.17777778,5.78447546 3.17777778,9 C3.17777778,12.2155245 5.78447546,14.8222222 9,14.8222222 C11.7482813,14.8222222 14.0889275,12.9062699 14.679252,10.2888889 L9.88624901,10.2888889 Z" fill="#000000" fill-rule="nonzero"></path>
</svg>
